<svg xmlns="http://www.w3.org/2000/svg" width="30" height="30" viewBox="0 0 30 30" fill="none">
  <g clip-path="url(#clip0_1022_103)">
    <path d="M15 2.5C21.8925 2.5 27.5 8.1075 27.5 15C27.5 21.8925 21.8925 27.5 15 27.5C8.1075 27.5 2.5 21.8925 2.5 15C2.5 8.1075 8.1075 2.5 15 2.5ZM15 0C6.71625 0 0 6.71625 0 15C0 23.2838 6.71625 30 15 30C23.2838 30 30 23.2838 30 15C30 6.71625 23.2838 0 15 0ZM15 8.8525C17.0025 8.8525 17.24 8.86 18.0312 8.89625C20.065 8.98875 21.0125 9.9525 21.1063 11.97C21.1413 12.7613 21.1488 12.9975 21.1488 15C21.1488 17.0025 21.1413 17.24 21.1063 18.03C21.0125 20.0462 20.0662 21.0125 18.0312 21.105C17.24 21.14 17.0037 21.1488 15 21.1488C12.9975 21.1488 12.76 21.1413 11.97 21.105C9.9325 21.0113 8.98875 20.0437 8.895 18.03C8.86 17.24 8.85125 17.0025 8.85125 15C8.85125 12.9975 8.86 12.76 8.895 11.97C8.9875 9.95125 9.935 8.9875 11.97 8.895C12.76 8.85875 12.9975 8.8525 15 8.8525ZM15 7.5C12.9625 7.5 12.7087 7.50875 11.9075 7.54625C9.1825 7.67125 7.67 9.1825 7.545 11.9075C7.50875 12.7087 7.5 12.9637 7.5 15C7.5 17.0375 7.50875 17.2925 7.545 18.0925C7.67 20.8162 9.1825 22.33 11.9075 22.455C12.7087 22.4913 12.9625 22.5 15 22.5C17.0375 22.5 17.2925 22.4913 18.0938 22.455C20.8138 22.33 22.3325 20.8188 22.455 18.0925C22.4913 17.2925 22.5 17.0375 22.5 15C22.5 12.9637 22.4913 12.7087 22.455 11.9075C22.3325 9.18625 20.8188 7.67 18.0938 7.54625C17.2925 7.50875 17.0375 7.5 15 7.5ZM15 11.1487C12.8737 11.1487 11.1487 12.8725 11.1487 15C11.1487 17.1275 12.8737 18.8512 15 18.8512C17.1262 18.8512 18.8512 17.1275 18.8512 15C18.8512 12.8737 17.1262 11.1487 15 11.1487ZM15 17.5C13.6187 17.5 12.5 16.3813 12.5 15C12.5 13.62 13.6187 12.5 15 12.5C16.38 12.5 17.5013 13.6187 17.5013 15C17.5013 16.3813 16.38 17.5 15 17.5ZM19.0025 10.0975C18.5063 10.0975 18.1025 10.5 18.1025 10.9975C18.1025 11.4938 18.505 11.8975 19.0025 11.8975C19.5 11.8975 19.9038 11.495 19.9038 10.9975C19.9038 10.5 19.5012 10.0975 19.0025 10.0975Z" fill="#ECECEC"/>
  </g>
  <defs>
    <clipPath id="clip0_1022_103">
      <rect width="30" height="30" fill="white"/>
    </clipPath>
  </defs>
</svg>