<?xml version="1.0" encoding="UTF-8" standalone="no"?>
<svg
   version="1.0"
   width="922px"
   height="1194px"
   viewBox="0 0 9220 11940"
   preserveAspectRatio="xMidYMid meet"
   id="svg92"
   sodipodi:docname="logo_bw.svg"
   inkscape:version="1.3 (0e150ed6c4, 2023-07-21)"
   xmlns:inkscape="http://www.inkscape.org/namespaces/inkscape"
   xmlns:sodipodi="http://sodipodi.sourceforge.net/DTD/sodipodi-0.dtd"
   xmlns="http://www.w3.org/2000/svg"
   xmlns:svg="http://www.w3.org/2000/svg">
  <defs
     id="defs92" />
  <sodipodi:namedview
     id="namedview92"
     pagecolor="#ffffff"
     bordercolor="#000000"
     borderopacity="0.25"
     inkscape:showpageshadow="2"
     inkscape:pageopacity="0.0"
     inkscape:pagecheckerboard="0"
     inkscape:deskcolor="#d1d1d1"
     inkscape:zoom="1.137744"
     inkscape:cx="461"
     inkscape:cy="596.79504"
     inkscape:window-width="1797"
     inkscape:window-height="1952"
     inkscape:window-x="2961"
     inkscape:window-y="325"
     inkscape:window-maximized="0"
     inkscape:current-layer="svg92" />
  <g
     id="layer101"
     fill="#070707"
     stroke="none">
    <path
       d="M4327 11754 c-16 -14 -32 -36 -36 -47 -15 -41 -43 -238 -39 -277 l3 -39 -26 25 c-14 14 -44 57 -65 95 -46 84 -76 105 -132 90 -104 -28 -226 -240 -256 -443 -4 -27 -11 -48 -15 -48 -8 0 -91 173 -91 190 0 5 -12 22 -26 39 -40 48 -72 43 -139 -25 -69 -71 -116 -165 -145 -297 -19 -86 -22 -121 -19 -284 l4 -186 -100 -79 c-137 -107 -275 -209 -370 -273 -44 -29 -108 -78 -143 -108 -34 -30 -101 -80 -149 -112 -48 -33 -95 -67 -104 -76 -23 -23 -149 -109 -160 -109 -19 0 -30 88 -28 226 1 163 -4 178 -62 176 -58 -1 -236 -198 -325 -357 l-39 -70 -5 63 c-4 54 -9 67 -33 88 -16 13 -35 24 -43 24 -16 0 -135 -115 -213 -205 -24 -27 -64 -85 -89 -127 -24 -43 -47 -78 -50 -78 -3 0 -2 69 1 154 6 170 -1 196 -49 196 -79 0 -140 -83 -291 -390 -53 -107 -113 -235 -133 -285 l-38 -90 -133 -83 c-74 -46 -162 -96 -197 -112 -91 -43 -147 -84 -166 -124 -13 -28 -16 -71 -16 -253 0 -120 5 -270 12 -333 7 -63 12 -137 13 -164 0 -44 -3 -50 -30 -65 -146 -79 -210 -136 -264 -235 -54 -99 -56 -109 -29 -140 18 -22 42 -31 117 -46 52 -11 105 -20 118 -20 34 0 28 -13 -23 -50 -26 -18 -70 -57 -99 -87 -43 -43 -54 -61 -57 -93 -4 -49 19 -76 72 -86 57 -10 263 -76 287 -91 20 -14 22 -23 26 -196 5 -176 22 -451 31 -492 2 -11 7 -51 11 -88 l8 -69 -54 -55 c-30 -30 -90 -82 -134 -115 -124 -94 -155 -127 -155 -163 0 -57 54 -86 168 -89 39 -1 73 -5 75 -9 1 -3 -14 -18 -33 -32 -19 -14 -55 -45 -80 -69 -25 -23 -72 -64 -105 -91 -77 -61 -104 -94 -105 -126 -1 -65 43 -78 255 -79 l150 -1 -83 -40 c-85 -43 -98 -58 -90 -110 4 -29 71 -64 139 -73 26 -4 71 -15 100 -25 l54 -18 8 -54 c5 -30 17 -97 28 -149 10 -53 19 -109 19 -125 0 -17 6 -59 14 -95 37 -160 46 -223 52 -335 l7 -120 -106 -107 c-58 -58 -136 -128 -172 -154 -65 -48 -80 -71 -73 -115 6 -44 53 -60 187 -61 67 0 121 -3 121 -5 0 -3 -23 -30 -51 -61 -98 -109 -97 -142 1 -186 32 -14 61 -26 66 -26 12 0 114 -63 114 -71 0 -3 -20 -17 -45 -30 -45 -24 -70 -63 -68 -102 2 -26 31 -67 53 -75 28 -10 259 -240 333 -330 71 -86 117 -164 117 -196 0 -11 -22 -43 -48 -71 -74 -78 -159 -206 -229 -346 -24 -48 -30 -52 -128 -89 -141 -54 -224 -132 -299 -280 -58 -111 -67 -152 -42 -186 12 -15 30 -20 99 -24 l86 -5 -61 -64 c-33 -35 -71 -88 -85 -118 -23 -50 -24 -55 -9 -78 26 -40 50 -40 114 -1 54 34 63 36 140 36 120 0 122 -2 122 -113 0 -51 7 -123 15 -162 8 -38 15 -80 15 -92 0 -44 50 -177 85 -229 20 -28 55 -65 78 -80 23 -16 44 -32 47 -36 3 -4 64 -37 135 -74 72 -36 148 -76 170 -89 22 -12 57 -28 77 -34 21 -7 40 -17 43 -22 4 -5 -3 -43 -14 -84 -16 -56 -21 -105 -21 -190 0 -102 2 -117 20 -135 43 -43 88 -15 163 100 41 64 59 82 142 144 l59 44 22 -84 c27 -106 48 -159 81 -207 53 -77 106 -75 144 6 27 57 108 172 116 164 2 -3 8 -34 13 -69 25 -193 122 -237 181 -81 37 99 66 151 117 213 87 106 170 162 379 258 81 37 169 82 195 100 54 37 64 39 73 13 3 -11 16 -23 28 -27 12 -4 34 -15 49 -26 27 -19 28 -22 28 -113 0 -86 2 -95 22 -109 35 -25 55 -19 95 25 21 22 61 51 89 65 49 23 103 32 105 17 0 -5 2 -38 4 -75 4 -78 20 -117 56 -137 37 -21 69 -8 113 46 55 66 88 92 154 119 49 20 74 24 178 24 67 0 148 -3 181 -6 l60 -7 6 -92 c6 -106 24 -151 64 -161 28 -7 38 2 137 120 37 45 83 83 90 75 2 -2 6 -23 9 -46 4 -23 31 -94 61 -157 l55 -116 40 0 c46 0 61 19 82 106 14 56 29 90 72 157 29 45 32 47 38 25 21 -77 97 -176 160 -209 38 -19 104 -25 125 -11 23 15 34 53 32 115 -1 54 3 75 28 123 32 66 78 98 189 133 151 48 210 81 296 164 49 48 96 113 131 180 26 52 44 66 85 67 35 0 33 4 48 -112 13 -102 83 -198 143 -198 21 0 52 29 53 51 0 8 10 37 23 64 l23 50 20 -45 c22 -50 74 -100 104 -100 30 0 59 36 59 75 0 56 38 140 87 195 25 28 53 55 63 60 30 16 290 37 290 23 0 -4 -9 -41 -20 -81 -21 -76 -26 -184 -10 -226 5 -14 22 -32 39 -40 29 -15 31 -15 72 20 72 60 148 91 150 62 8 -170 51 -308 100 -329 24 -9 33 -9 54 5 14 9 25 21 25 27 0 6 14 45 30 86 31 78 82 153 104 153 6 0 19 -28 29 -63 38 -143 97 -237 148 -237 23 0 34 8 54 40 14 22 25 49 25 61 0 12 16 58 36 103 33 71 52 96 163 211 70 72 153 165 186 207 33 43 84 108 113 145 58 75 117 171 167 272 69 140 166 437 171 521 1 25 8 97 14 160 6 63 15 225 18 360 l7 245 32 70 c46 100 73 222 103 470 5 39 14 102 19 140 6 39 13 108 16 155 2 47 7 142 11 212 8 143 4 164 -32 208 -34 39 -141 90 -192 90 l-39 0 -31 78 c-30 75 -57 162 -66 212 -2 14 -11 41 -19 60 -7 19 -21 56 -31 81 -18 51 -57 76 -96 64 -23 -7 -70 -94 -70 -130 0 -11 -10 -54 -21 -95 -11 -41 -29 -106 -39 -145 -19 -71 -45 -148 -55 -166 -4 -5 -36 48 -72 118 -36 71 -92 175 -124 232 -33 57 -59 107 -59 111 0 3 -10 16 -23 28 -29 27 -67 28 -99 2 -31 -24 -120 -220 -176 -385 -78 -228 -131 -373 -141 -379 -3 -2 -31 -7 -61 -11 l-55 -7 -44 96 c-24 52 -54 123 -66 158 -54 154 -67 185 -120 286 -54 104 -92 152 -120 152 -7 0 -27 -11 -42 -24 -30 -25 -42 -59 -118 -326 -15 -52 -33 -111 -41 -130 -7 -19 -18 -51 -23 -70 -6 -19 -22 -66 -35 -105 l-25 -70 -51 0 -52 0 -45 140 c-25 77 -54 169 -64 205 -10 36 -23 74 -28 85 -22 45 -70 172 -77 200 -10 46 -32 65 -74 65 -42 0 -57 -14 -85 -80 -49 -114 -162 -324 -228 -424 -44 -65 -47 -67 -55 -45 -27 70 -46 134 -68 219 -38 149 -115 379 -137 406 -24 31 -57 45 -87 37 -23 -6 -81 -116 -210 -400 -41 -89 -75 -161 -77 -160 -4 5 -58 260 -77 362 -9 50 -21 106 -26 126 -26 92 -94 118 -145 56 -40 -48 -206 -285 -238 -340 -29 -49 -54 -68 -66 -50 -3 5 -33 28 -66 50 -138 94 -270 227 -349 352 -63 100 -231 444 -281 576 -13 33 -41 103 -64 155 -47 108 -92 256 -115 381 -18 98 -22 512 -6 589 16 70 73 220 85 220 5 0 19 -7 29 -15 32 -24 132 -19 193 9 68 32 139 98 169 158 33 65 34 202 3 294 -12 35 -19 70 -16 77 3 8 25 19 49 25 90 23 178 101 178 160 0 12 3 22 8 22 4 0 43 -36 87 -81 44 -44 88 -85 97 -90 30 -16 64 6 81 53 13 37 39 195 54 323 7 64 7 65 50 49 21 -7 54 -13 75 -14 56 0 144 38 179 78 37 41 29 49 108 -113 105 -216 143 -299 167 -368 31 -90 58 -127 93 -127 39 0 60 28 66 86 19 194 44 374 81 587 7 42 5 41 79 13 88 -33 177 -5 225 70 31 50 38 47 63 -26 20 -57 65 -170 111 -280 20 -47 36 -90 36 -96 0 -26 49 -64 83 -64 42 0 49 9 69 85 9 33 30 110 46 170 17 61 34 127 37 148 4 20 10 37 13 37 3 0 17 -14 32 -31 21 -26 35 -32 77 -36 45 -5 54 -2 75 19 13 13 28 32 33 42 9 16 12 16 55 -3 28 -13 66 -21 101 -21 67 0 96 19 127 81 l21 41 32 -63 c17 -35 52 -100 78 -144 25 -44 80 -147 121 -230 80 -158 103 -184 156 -171 39 10 56 49 65 149 9 92 12 111 50 287 45 204 44 202 84 176 62 -41 159 -28 194 27 l20 32 16 -40 c9 -22 43 -94 75 -160 32 -66 61 -133 65 -150 12 -53 57 -159 82 -192 26 -35 66 -44 94 -20 9 6 32 59 53 117 43 119 44 121 122 320 47 122 63 151 96 180 36 32 40 41 48 105 21 163 12 261 -43 434 -37 120 -74 171 -124 171 -17 0 -36 -6 -42 -14 -14 -17 -57 -139 -66 -188 -4 -21 -10 -38 -14 -38 -3 0 -21 27 -39 60 l-33 60 21 83 c12 45 27 107 35 137 7 30 27 87 44 127 17 40 31 77 31 83 0 18 69 160 101 208 16 24 39 62 51 85 11 23 30 55 42 72 63 91 136 186 178 232 53 57 61 90 28 123 -16 16 -28 18 -72 13 -29 -3 -70 -12 -92 -20 -21 -7 -47 -13 -58 -13 -57 0 -279 -111 -417 -207 l-23 -17 7 54 c8 60 40 145 105 283 47 100 47 128 0 152 -42 22 -61 19 -135 -19 -84 -44 -137 -85 -202 -155 l-52 -56 0 45 c-1 78 18 222 39 304 25 98 25 128 2 149 -25 22 -48 21 -88 -4 -39 -23 -147 -159 -201 -251 -21 -35 -42 -66 -47 -70 -11 -7 -36 6 -233 124 -148 90 -231 143 -363 234 -52 36 -142 94 -200 129 -135 81 -167 117 -184 203 -8 43 28 153 89 269 44 85 46 102 17 136 -19 22 -107 23 -183 1 -101 -29 -267 -105 -341 -156 -14 -10 -29 -18 -32 -18 -3 0 -6 25 -6 56 0 61 26 167 71 287 35 94 36 110 7 137 -28 26 -61 25 -125 -4 -81 -38 -278 -171 -374 -252 l-87 -73 -58 41 c-33 22 -73 53 -91 69 -42 36 -232 160 -358 234 -137 79 -251 157 -440 299 -198 149 -252 186 -274 186 -9 0 -29 -12 -44 -26z m219 -237 c195 -144 374 -267 486 -331 141 -82 280 -173 360 -237 125 -101 201 -139 237 -120 11 6 56 42 101 81 122 105 300 225 300 201 0 -5 -10 -40 -22 -77 -19 -58 -22 -93 -23 -215 0 -131 2 -149 19 -168 28 -31 68 -26 119 13 25 19 80 55 124 80 81 46 252 120 260 112 3 -2 -11 -48 -31 -101 -28 -73 -36 -110 -36 -160 0 -120 64 -231 168 -290 97 -57 318 -199 350 -226 17 -16 98 -67 180 -115 81 -47 172 -103 202 -124 76 -52 195 -110 224 -110 13 0 29 7 36 15 13 16 20 27 80 133 19 34 39 62 44 62 4 0 5 -8 1 -17 -14 -34 -18 -268 -6 -338 14 -77 27 -95 70 -95 26 0 38 10 78 62 66 86 200 224 209 216 4 -4 2 -13 -4 -20 -39 -47 -92 -263 -92 -372 0 -81 1 -87 25 -102 33 -21 48 -15 175 75 129 92 202 135 284 165 83 32 85 32 59 4 -12 -13 -33 -47 -47 -76 -15 -29 -42 -76 -60 -105 -84 -131 -188 -378 -247 -585 l-21 -72 -47 48 c-49 51 -191 149 -229 159 -12 3 -36 0 -52 -7 -31 -13 -43 -40 -54 -120 -4 -25 -12 -59 -18 -76 -16 -45 -4 -80 31 -92 25 -9 34 -7 54 8 23 19 47 78 47 119 0 29 10 27 63 -14 99 -76 130 -117 267 -355 58 -100 67 -110 105 -110 18 0 39 8 47 18 23 25 64 112 73 151 10 46 21 25 40 -75 16 -81 19 -154 9 -226 l-6 -45 -142 -6 c-77 -4 -193 -10 -258 -13 l-116 -7 -27 52 c-14 29 -54 94 -89 144 -34 51 -84 133 -111 182 -64 120 -117 198 -152 221 -19 12 -46 18 -84 19 -47 0 -61 -4 -91 -30 -45 -38 -78 -105 -85 -172 -5 -42 -1 -67 18 -114 21 -53 39 -75 147 -176 67 -63 122 -118 122 -123 0 -4 -35 -10 -77 -13 -168 -14 -310 -27 -354 -33 -43 -5 -48 -3 -85 33 -22 21 -47 48 -57 60 -27 32 -57 158 -57 243 0 140 -38 208 -121 217 -62 7 -111 -16 -146 -68 -25 -39 -28 -51 -28 -131 0 -48 -3 -88 -7 -88 -3 0 -20 42 -38 94 -50 152 -123 218 -240 219 -66 0 -105 -21 -139 -77 -17 -26 -21 -50 -21 -113 0 -70 3 -84 28 -124 34 -53 100 -112 162 -144 52 -27 150 -128 150 -155 0 -4 -64 -11 -142 -14 -79 -4 -169 -9 -200 -12 l-57 -6 -20 39 c-11 21 -43 61 -72 88 -52 51 -127 143 -146 180 -6 11 -20 55 -32 98 -38 139 -87 206 -166 226 -149 38 -241 -25 -252 -172 -8 -99 9 -143 79 -207 129 -117 190 -182 208 -222 25 -55 17 -62 -80 -78 -156 -24 -236 -39 -273 -50 -20 -6 -42 -8 -47 -5 -30 18 -144 184 -186 268 -83 168 -127 203 -250 195 -85 -5 -138 -41 -177 -120 -25 -48 -29 -67 -28 -139 0 -71 4 -87 26 -121 30 -46 104 -121 158 -161 20 -15 37 -32 37 -37 0 -4 -33 -21 -72 -36 -75 -28 -95 -38 -210 -106 -37 -22 -72 -37 -78 -33 -17 11 -31 53 -40 125 -39 305 -82 415 -177 456 -72 31 -181 6 -244 -57 -60 -60 -83 -113 -83 -189 1 -89 17 -131 88 -230 98 -136 126 -184 126 -218 0 -18 -4 -32 -9 -32 -13 0 -44 45 -70 101 -27 57 -81 122 -134 160 -58 42 -137 41 -218 -3 -56 -29 -62 -36 -102 -116 -39 -79 -42 -92 -41 -161 1 -129 59 -235 169 -311 30 -21 55 -52 85 -106 46 -84 90 -194 90 -225 0 -11 -16 -54 -36 -97 -66 -141 -96 -246 -106 -377 -14 -173 -2 -414 28 -549 45 -208 42 -201 226 -641 70 -166 187 -395 258 -503 68 -102 220 -260 319 -330 36 -25 68 -49 71 -53 14 -19 207 -137 323 -198 233 -123 501 -189 1050 -261 98 -13 677 -12 852 0 289 22 365 29 375 35 6 4 59 11 118 16 58 5 122 14 142 19 19 5 51 12 70 15 19 3 49 10 65 15 17 6 62 14 100 20 39 5 104 19 145 31 41 11 100 27 130 35 31 7 87 26 125 42 39 16 104 39 145 51 41 12 84 26 95 31 46 22 159 60 176 60 10 0 39 -12 65 -28 l46 -27 -6 -145 c-7 -156 -38 -463 -55 -545 -5 -27 -18 -99 -27 -160 -19 -125 -42 -184 -107 -272 -62 -83 -137 -124 -327 -179 -25 -7 -79 -25 -120 -39 -80 -29 -309 -75 -376 -75 -23 0 -61 -7 -84 -15 -23 -8 -51 -15 -61 -15 -25 0 -258 -112 -316 -151 -25 -17 -58 -45 -74 -62 -16 -16 -32 -28 -35 -25 -7 7 15 96 33 131 13 25 12 31 -1 53 -9 13 -27 26 -40 30 -27 6 -130 -32 -215 -79 l-53 -30 16 31 c32 63 8 112 -55 112 -31 0 -176 -70 -218 -106 -16 -13 -32 -24 -36 -24 -7 0 -1 92 11 162 5 31 3 38 -20 53 -38 25 -74 13 -94 -33 -12 -28 -16 -64 -15 -143 2 -118 15 -181 44 -210 32 -32 57 -23 132 51 72 70 95 85 82 53 -14 -38 -24 -115 -18 -144 3 -17 16 -37 29 -46 37 -24 71 -9 105 45 20 32 53 62 102 94 40 27 75 48 80 48 4 0 7 -54 7 -119 0 -134 7 -151 63 -151 27 0 39 9 76 54 74 94 223 208 301 231 14 4 48 19 75 33 62 31 135 48 291 66 137 17 214 34 329 75 44 16 131 45 194 65 63 20 128 46 144 58 44 32 49 15 43 -152 -12 -303 -26 -451 -51 -544 -72 -269 -165 -471 -295 -637 -27 -35 -70 -91 -96 -124 -25 -33 -107 -122 -181 -199 -114 -118 -140 -151 -178 -225 -41 -82 -43 -85 -50 -56 -3 17 -10 49 -16 72 -5 23 -9 52 -9 64 0 41 -38 69 -93 69 -41 0 -56 -6 -96 -37 -26 -21 -63 -57 -81 -80 -19 -23 -37 -40 -40 -37 -3 3 -8 44 -11 91 -5 74 -9 89 -28 104 -31 25 -92 24 -166 -1 -32 -11 -61 -18 -63 -15 -3 3 5 44 17 92 35 135 35 135 5 167 l-28 29 -155 -7 c-251 -11 -294 -27 -396 -155 l-50 -62 -7 42 c-21 123 -115 97 -185 -50 -15 -33 -31 -60 -34 -60 -3 -1 -9 38 -13 86 -4 48 -11 94 -16 104 -16 29 -65 42 -141 36 -98 -8 -136 -34 -190 -133 -48 -87 -143 -194 -203 -229 -23 -13 -79 -35 -126 -51 -108 -35 -208 -84 -242 -121 -37 -39 -80 -137 -86 -195 -5 -48 -5 -48 -24 -31 -28 25 -56 84 -64 131 -8 51 -37 99 -68 113 -52 24 -134 -45 -211 -176 l-39 -68 -13 31 c-7 17 -15 68 -19 114 -7 84 -27 128 -61 128 -25 0 -111 -49 -167 -95 -31 -25 -57 -45 -60 -45 -2 0 -1 20 1 45 5 39 2 47 -24 74 -36 36 -97 45 -318 45 -131 0 -159 -3 -218 -23 -37 -13 -89 -38 -115 -57 -89 -64 -84 -65 -76 19 6 70 5 75 -17 91 -13 9 -35 16 -50 16 -36 0 -186 -38 -220 -56 -16 -8 -30 -14 -34 -14 -3 0 -5 22 -5 48 0 56 -11 69 -82 100 -27 12 -48 24 -48 28 0 4 52 60 115 125 120 123 131 143 95 179 -38 38 -59 26 -175 -91 -143 -145 -313 -258 -498 -330 -112 -44 -210 -111 -312 -214 -56 -55 -107 -115 -114 -133 -21 -51 -31 -38 -31 43 0 88 -17 115 -74 115 -39 0 -71 -32 -174 -171 -31 -43 -60 -78 -64 -78 -12 -1 -39 95 -47 171 -5 41 -14 84 -20 97 -17 32 -56 44 -98 30 -35 -11 -163 -102 -233 -165 l-41 -37 7 29 c3 16 15 54 26 84 34 97 34 103 -8 140 -21 18 -58 42 -83 52 -92 39 -340 168 -399 207 -68 46 -101 93 -125 181 -22 79 -48 253 -55 377 l-7 107 -33 19 c-20 12 -71 24 -125 31 l-91 11 67 42 c69 43 85 69 73 117 -9 36 -101 65 -208 66 -32 0 -58 2 -58 5 0 3 13 32 29 64 47 93 166 185 267 206 45 9 111 69 141 128 70 140 145 244 303 426 65 75 189 170 283 217 80 41 99 69 73 109 -12 18 -25 25 -47 25 -44 0 -176 -72 -258 -141 -39 -32 -75 -59 -80 -59 -6 0 -17 15 -26 34 -9 18 -24 42 -33 52 -10 11 -46 55 -79 100 -34 44 -118 134 -187 199 -141 133 -143 139 -30 136 74 -1 104 18 104 69 0 30 -29 70 -51 70 -7 0 -48 24 -93 54 -44 30 -107 67 -138 83 l-58 29 33 30 c17 17 62 54 98 82 69 54 79 67 79 107 0 47 -27 53 -198 47 l-157 -5 133 130 c108 106 134 137 138 164 7 45 -22 365 -41 459 -9 41 -20 107 -26 145 -6 39 -19 111 -30 160 -10 50 -19 107 -19 127 0 68 -42 137 -84 139 -12 0 -41 8 -65 18 l-43 18 88 59 c68 45 90 65 92 84 7 64 -39 78 -287 88 l-155 7 65 55 c35 30 69 60 74 66 6 6 49 41 98 78 48 37 95 78 103 91 19 29 11 80 -14 90 -9 4 -70 9 -134 12 -65 3 -118 9 -118 12 0 3 40 35 88 71 52 39 106 90 134 128 45 59 48 67 48 122 0 32 -7 94 -15 137 -8 43 -15 121 -15 173 0 52 -7 140 -15 195 -8 55 -15 168 -15 252 l0 152 -27 20 c-14 12 -33 19 -42 16 -13 -4 -148 34 -250 71 -29 10 55 76 241 189 24 15 34 29 36 52 5 50 -16 59 -183 79 -22 3 -71 12 -110 20 -38 7 -73 14 -78 14 -4 0 -1 12 7 28 29 55 128 131 239 183 27 12 53 32 59 44 7 15 5 87 -6 229 -9 113 -16 289 -16 390 0 213 -5 201 100 248 36 16 88 44 115 62 28 18 96 61 152 95 121 75 135 89 158 161 21 64 246 520 256 520 4 0 9 -69 11 -154 3 -139 5 -158 24 -183 46 -61 98 -36 147 70 19 41 54 107 77 148 46 79 146 209 161 209 5 0 9 -21 9 -47 0 -27 8 -77 18 -113 18 -62 21 -65 56 -74 48 -12 62 2 108 109 42 100 132 251 195 330 l48 60 6 -90 c10 -136 43 -218 102 -250 34 -18 37 -18 76 0 22 10 48 27 58 38 10 10 41 34 70 53 29 18 60 41 70 51 10 10 65 51 123 92 58 41 124 92 148 113 23 21 61 51 85 66 50 32 180 124 187 132 3 3 28 21 55 40 28 19 64 46 80 61 17 15 73 58 125 97 139 103 133 96 126 150 -15 107 -18 338 -6 407 18 104 78 255 102 255 3 0 11 -12 16 -27 50 -135 135 -283 173 -303 27 -15 60 -12 81 7 13 12 18 31 18 72 0 31 9 85 20 119 11 35 20 77 20 93 0 17 7 43 15 58 8 16 17 44 20 62 8 45 97 192 109 178 1 -2 21 -31 43 -64 23 -33 89 -109 148 -169 88 -89 114 -109 137 -109 16 0 34 5 40 11 14 14 12 86 -2 113 -20 35 -36 195 -29 265 5 38 8 77 8 88 1 26 16 18 157 -87z m3844 -3576 c0 -5 -18 -54 -40 -108 -23 -54 -52 -132 -67 -173 -48 -140 -41 -136 -77 -39 -18 48 -50 118 -71 155 -21 38 -44 86 -51 107 -15 42 -17 41 76 39 25 -1 79 5 120 12 95 17 110 18 110 7z m-803 -45 c-14 -35 -46 -174 -91 -384 l-11 -52 -58 107 c-32 60 -82 153 -112 207 -29 55 -51 104 -49 108 3 4 38 8 77 9 40 1 99 5 132 9 101 12 118 12 112 -4z m-1084 -146 c-35 -144 -54 -203 -64 -193 -14 14 -99 225 -99 245 0 15 12 18 83 20 45 2 85 1 89 -2 4 -3 0 -34 -9 -70z m-750 -32 c-3 -24 -11 -65 -18 -93 -7 -27 -16 -72 -19 -100 -13 -109 -30 -205 -35 -205 -3 0 -21 37 -40 83 -19 45 -61 133 -93 196 -32 63 -55 118 -51 122 10 10 167 36 225 38 l36 1 -5 -42z m-827 -205 c-4 -27 -12 -79 -17 -117 -5 -38 -12 -72 -15 -75 -3 -3 -37 28 -75 69 -54 59 -66 77 -56 87 14 14 148 83 161 83 5 0 6 -21 2 -47z m3022 -3056 c73 -131 161 -307 172 -342 7 -22 19 -50 26 -63 12 -18 12 -23 2 -26 -99 -32 -227 -63 -348 -85 -30 -6 -66 -13 -79 -17 -21 -6 -23 -4 -18 12 15 50 80 241 88 259 4 11 20 56 35 100 29 90 81 205 92 205 4 0 17 -19 30 -43z m-2663 -112 c10 -55 30 -153 45 -218 l28 -119 -25 7 c-32 8 -293 145 -293 153 0 11 95 157 157 240 65 88 60 91 88 -63z m518 24 c16 -50 42 -141 57 -203 16 -62 35 -128 43 -147 8 -19 22 -58 30 -86 l15 -53 -25 0 c-13 0 -63 7 -111 15 -48 9 -112 20 -142 25 -30 6 -71 15 -91 20 l-37 10 43 103 c23 56 69 161 102 232 34 72 64 140 67 153 4 12 10 22 14 22 4 0 20 -41 35 -91z m2671 44 c3 -21 23 -84 45 -141 l40 -103 -27 -11 c-49 -19 -176 -58 -179 -54 -2 2 7 30 20 62 13 33 36 110 52 172 16 61 32 112 36 112 4 0 9 -17 13 -37z m-1325 -159 c21 -49 51 -125 66 -169 15 -44 43 -111 61 -149 19 -38 33 -70 32 -72 -2 -1 -49 -7 -106 -13 -118 -13 -272 -15 -272 -3 0 4 15 50 34 102 19 52 53 160 76 240 54 189 49 175 61 163 5 -5 27 -50 48 -99z m-721 29 c11 -27 27 -73 36 -103 9 -30 25 -77 35 -105 20 -54 71 -217 71 -228 0 -9 -424 -9 -433 0 -8 7 47 108 103 193 21 30 64 108 96 172 32 65 62 118 65 118 4 0 16 -21 27 -47z"
       id="path1" />
    <path
       d="M4406 10994 c-20 -19 -21 -68 -2 -102 8 -15 65 -128 127 -252 116 -235 207 -398 240 -431 26 -26 85 -26 99 0 17 32 12 56 -20 96 -35 44 -202 358 -285 535 -32 69 -67 135 -78 148 -24 26 -59 29 -81 6z"
       id="path2" />
    <path
       d="M4906 10934 c-26 -26 -19 -53 53 -199 122 -245 193 -398 215 -460 29 -81 32 -85 71 -85 39 0 55 20 55 71 0 52 -280 648 -317 677 -23 17 -58 15 -77 -4z"
       id="path3" />
    <path
       d="M3897 10739 c-10 -6 -22 -22 -27 -35 -8 -21 -1 -42 47 -132 87 -164 177 -309 297 -479 82 -117 117 -141 159 -109 35 27 21 68 -66 187 -97 134 -166 243 -271 432 -42 75 -81 137 -86 137 -4 0 -14 2 -22 5 -7 2 -21 0 -31 -6z"
       id="path4" />
    <path
       d="M3497 10412 c-26 -29 -21 -61 23 -136 39 -67 153 -223 205 -281 15 -16 43 -49 63 -73 57 -69 113 -90 145 -54 26 29 21 67 -13 94 -61 48 -205 230 -313 398 -46 72 -79 87 -110 52z"
       id="path5" />
    <path
       d="M5837 10092 c-28 -30 -17 -98 33 -207 5 -11 34 -79 64 -151 71 -169 253 -546 269 -556 25 -17 71 -4 86 24 15 25 12 34 -86 235 -56 114 -111 229 -122 256 -12 26 -31 68 -42 95 -12 26 -28 64 -35 85 -7 20 -20 52 -28 70 -8 17 -22 54 -32 81 -29 79 -72 106 -107 68z"
       id="path6" />
    <path
       d="M4715 10050 c-17 -19 -17 -27 -5 -113 8 -58 14 -255 17 -535 5 -437 5 -442 26 -457 28 -19 52 -19 71 1 14 14 16 70 16 474 0 468 -8 598 -38 633 -20 23 -65 22 -87 -3z"
       id="path7" />
    <path
       d="M6286 9989 c-14 -11 -26 -29 -26 -40 0 -38 181 -364 317 -571 80 -123 85 -128 118 -128 33 0 65 27 65 56 0 6 -28 53 -63 105 -86 131 -151 239 -246 416 -72 134 -108 183 -132 183 -3 0 -18 -9 -33 -21z"
       id="path8" />
    <path
       d="M5416 9904 c-20 -19 -20 -47 -2 -87 8 -18 40 -97 71 -176 61 -159 61 -159 155 -358 74 -154 91 -173 141 -153 41 17 46 49 16 102 -35 58 -163 352 -227 518 -28 74 -59 143 -67 153 -20 21 -66 22 -87 1z"
       id="path9" />
    <path
       d="M6820 9795 c-30 -36 -11 -76 158 -335 91 -138 157 -231 223 -312 24 -30 37 -38 63 -38 17 0 37 5 44 12 28 28 13 67 -69 175 -85 113 -191 270 -280 418 -51 84 -57 90 -90 93 -23 2 -40 -2 -49 -13z"
       id="path10" />
    <path
       d="M3826 9674 c-9 -8 -16 -25 -16 -37 0 -31 18 -176 36 -282 8 -49 17 -106 19 -125 3 -19 11 -66 20 -105 8 -38 19 -119 24 -179 7 -96 11 -112 31 -128 29 -23 42 -23 71 3 21 18 23 27 21 92 -1 39 -6 97 -12 127 -5 30 -12 71 -15 90 -2 19 -11 71 -19 115 -20 105 -44 265 -51 340 -8 76 -26 105 -65 105 -15 0 -36 -7 -44 -16z"
       id="path11" />
    <path
       d="M4262 9558 c-16 -16 -15 -80 2 -192 8 -50 22 -147 31 -216 22 -167 27 -180 76 -180 66 0 68 12 33 270 -28 208 -46 300 -61 315 -17 18 -64 20 -81 3z"
       id="path12" />
    <path
       d="M2656 9468 c-14 -19 -16 -67 -16 -323 0 -331 2 -345 59 -345 60 0 61 6 61 341 0 337 -2 349 -60 349 -18 0 -34 -8 -44 -22z"
       id="path13" />
    <path
       d="M3374 9382 c-29 -19 -32 -47 -14 -142 9 -52 25 -147 34 -210 10 -63 24 -149 32 -191 8 -42 17 -96 20 -120 8 -71 24 -132 40 -156 21 -32 68 -31 90 2 15 24 15 33 -4 138 -32 172 -85 492 -97 589 -10 74 -59 118 -101 90z"
       id="path14" />
    <path
       d="M2107 9252 c-15 -16 -17 -60 -19 -391 -2 -400 -3 -390 49 -391 30 0 51 24 60 68 4 20 8 187 8 370 0 319 -1 334 -19 348 -27 19 -60 18 -79 -4z"
       id="path15" />
    <path
       d="M1606 9137 c-23 -17 -33 -67 -61 -311 -25 -218 -24 -239 15 -251 62 -20 86 27 100 197 6 68 18 162 26 209 18 113 18 125 -6 149 -23 23 -49 26 -74 7z"
       id="path16" />
    <path
       d="M6492 9114 c-41 -28 -30 -67 41 -134 l62 -59 -116 6 c-124 6 -158 2 -183 -23 -34 -33 -20 -65 63 -145 90 -86 129 -108 166 -91 36 17 35 74 -2 108 l-28 25 118 -6 c84 -4 123 -3 133 6 18 15 17 77 -1 109 -8 14 -14 28 -15 32 0 9 115 -33 190 -70 30 -15 89 -53 132 -84 61 -47 83 -58 113 -58 61 0 89 62 43 95 -13 9 -61 43 -108 76 -125 89 -223 131 -477 203 -108 31 -103 30 -131 10z"
       id="path17" />
    <path
       d="M1218 9063 c-18 -21 -27 -51 -58 -188 -13 -55 -34 -138 -47 -185 -13 -47 -27 -95 -30 -108 -7 -30 22 -62 58 -62 53 0 67 35 144 358 34 144 36 155 21 178 -20 29 -65 33 -88 7z"
       id="path18" />
    <path
       d="M5205 8987 c-54 -16 -79 -31 -111 -64 -45 -45 -54 -74 -54 -162 1 -72 26 -127 80 -174 41 -35 47 -37 115 -37 136 0 242 81 268 205 13 62 0 119 -41 180 -52 77 -128 92 -257 52z"
       id="path19" />
    <path
       d="M4027 8593 c-15 -2 -34 -15 -43 -28 -14 -21 -14 -27 0 -52 8 -16 33 -42 55 -58 23 -15 41 -31 41 -35 0 -5 -66 -30 -147 -56 -148 -47 -233 -83 -265 -112 -26 -22 -23 -77 4 -96 26 -19 29 -16 -52 -55 -85 -42 -167 -97 -180 -121 -28 -51 15 -101 102 -120 29 -6 82 -20 117 -30 35 -11 75 -20 91 -20 49 0 76 54 48 93 -7 10 -48 27 -90 38 -43 12 -78 25 -78 29 0 14 210 94 302 114 58 13 76 66 35 104 -13 12 -35 22 -50 22 -15 0 -27 3 -27 8 0 9 286 99 354 111 47 9 76 30 76 57 0 20 -38 61 -70 74 -16 7 -28 15 -26 19 6 9 340 -6 423 -20 64 -10 75 -10 98 5 19 12 25 25 25 52 0 54 -36 64 -265 75 -194 8 -428 9 -478 2z"
       id="path20" />
    <path
       d="M2425 8424 c-20 -14 -20 -28 -23 -584 -2 -560 -2 -570 18 -590 25 -25 41 -25 71 -1 20 16 23 31 30 127 12 173 11 988 -2 1021 -17 45 -55 56 -94 27z"
       id="path21" />
    <path
       d="M2907 8342 c-10 -10 -17 -34 -17 -53 0 -19 -9 -104 -19 -189 -24 -191 -49 -488 -56 -677 l-6 -142 26 -17 c39 -26 77 -10 86 36 4 19 14 148 23 285 10 138 23 306 31 375 8 69 17 154 20 190 3 35 8 86 11 112 5 36 2 54 -10 73 -20 30 -65 34 -89 7z"
       id="path22" />
    <path
       d="M1530 8330 c-23 -23 -23 -21 -10 -108 5 -37 17 -119 25 -182 24 -169 70 -430 107 -600 11 -52 22 -105 24 -118 10 -53 96 -51 110 3 4 15 -13 121 -39 258 -25 127 -53 279 -62 337 -59 380 -63 404 -81 417 -25 19 -51 16 -74 -7z"
       id="path23" />
    <path
       d="M1051 8214 c-23 -16 -23 -20 -17 -108 9 -126 59 -421 92 -549 9 -32 17 -66 19 -75 2 -9 15 -57 30 -107 15 -49 29 -102 32 -118 6 -33 48 -68 71 -60 53 19 55 71 9 227 -35 115 -63 225 -72 286 -3 19 -12 69 -19 110 -8 41 -24 143 -36 225 -18 121 -26 153 -42 168 -25 21 -37 21 -67 1z"
       id="path24" />
    <path
       d="M2170 7072 c-26 -21 -33 -78 -50 -422 -5 -113 -14 -295 -20 -404 -10 -196 -10 -199 11 -222 39 -41 91 -16 103 51 3 17 8 129 11 250 4 121 13 304 21 407 18 233 18 322 2 336 -27 21 -55 22 -78 4z"
       id="path25" />
    <path
       d="M1128 6979 c-29 -16 -22 -83 27 -271 24 -95 47 -184 51 -198 3 -14 15 -54 25 -90 163 -551 160 -540 198 -540 9 0 27 7 39 16 32 22 28 58 -18 209 -86 277 -162 553 -207 745 -8 36 -17 75 -20 88 -10 42 -58 63 -95 41z"
       id="path26" />
    <path
       d="M2586 6908 c-13 -22 -29 -167 -56 -498 -6 -74 -16 -159 -21 -188 -14 -68 -6 -100 25 -108 72 -18 94 24 107 209 5 78 14 180 20 226 5 46 14 143 19 214 8 116 8 133 -7 149 -23 26 -69 23 -87 -4z"
       id="path27" />
    <path
       d="M3091 6886 c-22 -23 -26 -43 -42 -213 -24 -246 -26 -693 -4 -838 47 -310 109 -543 195 -730 37 -79 190 -329 214 -349 7 -6 30 -32 51 -58 47 -60 86 -64 113 -13 14 28 -5 70 -67 145 -28 34 -58 75 -67 93 -10 18 -34 57 -54 87 -77 113 -159 313 -195 474 -7 34 -23 104 -34 156 -33 149 -51 344 -51 563 0 237 16 507 36 592 14 55 13 61 -4 85 -26 35 -62 37 -91 6z"
       id="path28" />
    <path
       d="M3433 6865 c-18 -12 -22 -29 -28 -107 -4 -51 -16 -165 -27 -253 -17 -138 -19 -193 -14 -395 7 -241 14 -298 72 -566 67 -309 251 -693 419 -874 28 -30 68 -78 88 -107 21 -28 41 -53 45 -55 4 -2 30 -32 59 -68 77 -98 168 -180 198 -180 30 0 65 32 65 61 0 13 -24 43 -61 77 -34 32 -81 82 -104 112 -24 30 -54 66 -67 79 -12 14 -39 46 -58 72 -19 25 -62 78 -95 117 -96 111 -215 314 -267 456 -45 120 -96 281 -104 324 -3 20 -12 62 -20 92 -7 30 -16 78 -19 106 -3 28 -11 66 -17 85 -6 20 -13 140 -15 289 -4 225 -2 270 16 380 27 164 29 330 3 353 -23 21 -41 21 -69 2z"
       id="path29" />
    <path
       d="M1684 6763 c-15 -16 -16 -35 -10 -208 19 -482 19 -475 45 -496 29 -24 32 -24 65 2 l27 21 -5 187 c-9 331 -17 464 -32 489 -18 27 -65 30 -90 5z"
       id="path30" />
    <path
       d="M2565 5576 c-17 -26 -21 -11 60 -286 21 -69 43 -147 50 -175 7 -27 27 -90 45 -138 37 -100 64 -128 105 -109 42 19 41 53 -2 185 -22 67 -57 178 -77 247 -19 69 -45 158 -57 198 -12 40 -28 79 -36 87 -23 24 -70 19 -88 -9z"
       id="path31" />
    <path
       d="M1382 5430 c-22 -21 -22 -21 -22 -450 0 -251 4 -439 10 -454 18 -48 92 -46 107 2 5 15 7 219 5 454 -4 406 -5 427 -23 447 -25 26 -49 27 -77 1z"
       id="path32" />
    <path
       d="M2204 5352 c-25 -17 -32 -47 -23 -102 23 -130 79 -420 87 -450 4 -13 19 -31 33 -39 24 -13 29 -13 54 3 26 17 27 21 21 75 -9 80 -21 145 -61 341 -8 36 -16 83 -20 105 -9 61 -52 93 -91 67z"
       id="path33" />
    <path
       d="M1735 5330 c-24 -26 -20 -58 60 -462 14 -70 25 -142 25 -161 0 -39 33 -87 60 -87 10 0 28 8 41 18 28 23 30 75 6 177 -20 88 -45 218 -53 270 -3 22 -12 71 -20 108 -8 38 -14 79 -14 93 0 54 -69 83 -105 44z"
       id="path34" />
    <path
       d="M2660 4573 c-11 -15 -18 -33 -16 -40 19 -48 71 -210 107 -333 63 -214 152 -422 206 -482 31 -35 103 -11 103 33 0 8 -26 66 -58 129 -49 97 -134 323 -147 390 -8 41 -78 256 -92 285 -9 17 -21 33 -27 37 -23 15 -55 7 -76 -19z"
       id="path35" />
    <path
       d="M3084 4515 c-15 -24 -14 -30 36 -162 85 -226 150 -381 192 -456 21 -39 41 -82 45 -96 14 -61 63 -79 101 -38 25 27 29 73 8 102 -36 52 -115 225 -187 412 -104 268 -101 263 -144 263 -26 0 -39 -6 -51 -25z"
       id="path36" />
    <path
       d="M2180 4362 c-21 -7 -30 -23 -30 -54 0 -24 190 -610 211 -649 13 -26 57 -32 86 -14 21 14 24 22 20 53 -6 49 -205 633 -221 650 -14 15 -45 21 -66 14z"
       id="path37" />
    <path
       d="M1418 4095 c-13 -28 -16 -17 66 -250 25 -71 66 -202 91 -290 26 -88 54 -168 62 -177 24 -27 69 -23 89 7 16 24 15 32 -26 173 -57 201 -134 430 -168 499 -25 54 -30 58 -64 61 -33 3 -40 -1 -50 -23z"
       id="path38" />
    <path
       d="M1936 4094 c-9 -8 -16 -24 -16 -34 0 -23 61 -296 95 -425 15 -55 33 -129 41 -164 7 -35 21 -74 29 -87 30 -46 105 -20 105 35 0 12 -13 72 -30 134 -44 169 -103 414 -115 482 -4 22 -14 48 -22 58 -20 21 -66 22 -87 1z"
       id="path39" />
    <path
       d="M4577 3908 c-11 -9 -22 -44 -32 -108 -9 -52 -25 -147 -36 -210 -33 -187 -33 -185 -14 -203 20 -20 64 -22 89 -4 17 13 35 91 50 227 3 25 12 77 21 115 21 97 20 158 -3 178 -22 20 -52 22 -75 5z"
       id="path40" />
    <path
       d="M4787 3902 c-12 -13 -17 -36 -17 -73 0 -30 -7 -106 -14 -169 -8 -63 -18 -143 -21 -177 -4 -34 -13 -85 -22 -115 -26 -93 -27 -104 -4 -127 12 -12 29 -21 39 -21 42 0 84 83 97 191 3 24 12 91 20 149 8 58 17 154 21 213 6 95 4 110 -11 127 -23 25 -67 26 -88 2z"
       id="path41" />
    <path
       d="M5128 3833 c-18 -21 -66 -168 -97 -298 -12 -49 -29 -111 -38 -136 -20 -57 -12 -96 21 -105 62 -15 88 23 126 186 13 52 36 136 52 185 41 126 43 150 16 170 -30 20 -61 19 -80 -2z"
       id="path42" />
    <path
       d="M7882 3649 c-144 -38 -199 -100 -189 -215 2 -34 12 -73 21 -85 9 -13 16 -29 16 -36 0 -24 -59 -14 -102 17 -33 24 -51 30 -95 30 -91 0 -137 -31 -183 -119 -23 -47 -27 -149 -8 -213 22 -73 107 -142 278 -224 157 -76 249 -91 387 -65 54 11 123 22 153 26 159 18 373 173 457 331 29 55 32 67 29 135 -5 111 -57 212 -142 280 -46 36 -72 43 -130 35 -88 -12 -119 -45 -169 -181 -16 -45 -16 9 0 62 32 101 8 166 -81 215 -60 34 -133 36 -242 7z"
       id="path43" />
    <path
       d="M6200 3550 c-11 -11 -20 -27 -20 -36 0 -15 90 -193 187 -369 32 -58 43 -71 67 -73 32 -4 66 22 66 50 0 36 -195 411 -228 436 -23 18 -49 15 -72 -8z"
       id="path44" />
    <path
       d="M3602 3544 c-38 -26 -29 -63 29 -119 28 -28 111 -117 184 -200 179 -202 329 -355 349 -355 9 0 28 11 42 25 32 32 26 54 -30 115 -22 25 -108 119 -191 210 -201 221 -321 340 -343 340 -9 0 -28 -7 -40 -16z"
       id="path45" />
    <path
       d="M6629 3479 c-24 -24 -21 -48 23 -159 56 -140 108 -304 108 -341 0 -38 26 -69 58 -69 26 0 62 48 62 84 0 54 -126 423 -165 482 -19 30 -58 31 -86 3z"
       id="path46" />
    <path
       d="M6970 3430 c-11 -11 -20 -32 -20 -46 0 -36 18 -203 36 -319 8 -55 15 -122 16 -148 1 -38 6 -52 26 -68 32 -24 47 -24 73 2 20 20 21 29 15 108 -3 47 -13 133 -21 191 -8 58 -17 140 -21 183 -4 58 -11 84 -25 98 -25 25 -54 24 -79 -1z"
       id="path47" />
    <path
       d="M3137 3402 c-41 -45 -24 -68 151 -205 57 -45 133 -106 170 -135 289 -229 352 -259 391 -184 16 30 -5 65 -52 87 -47 22 -172 115 -410 308 -192 154 -216 167 -250 129z"
       id="path48" />
    <path
       d="M5530 3383 c-52 -20 -31 -113 25 -113 45 0 147 -25 235 -57 165 -60 214 -89 294 -171 65 -66 77 -74 100 -68 31 8 51 44 43 78 -10 39 -143 164 -211 197 -186 93 -423 158 -486 134z"
       id="path49" />
    <path
       d="M2657 3192 c-33 -36 -22 -65 51 -129 127 -114 262 -223 359 -292 54 -39 109 -78 123 -89 14 -10 40 -27 58 -38 30 -17 35 -17 59 -4 15 8 30 27 34 42 8 30 -10 51 -101 114 -169 117 -277 201 -425 333 -92 81 -128 96 -158 63z"
       id="path50" />
    <path
       d="M5196 3039 c-54 -13 -76 -35 -76 -76 0 -48 32 -61 103 -42 65 18 259 8 404 -20 185 -36 355 -121 450 -225 23 -25 50 -46 60 -46 33 0 63 29 63 62 0 37 -82 122 -186 190 -73 48 -235 115 -295 123 -20 2 -61 11 -92 19 -70 18 -377 29 -431 15z"
       id="path51" />
    <path
       d="M2281 2846 c-35 -38 -22 -68 47 -109 31 -19 127 -70 212 -114 188 -98 235 -124 313 -174 33 -21 63 -39 67 -39 4 0 19 9 34 21 32 25 33 59 4 86 -39 36 -158 108 -293 178 -71 37 -176 92 -231 121 -56 30 -108 54 -116 54 -8 0 -25 -11 -37 -24z"
       id="path52" />
    <path
       d="M4377 2662 c-24 -26 -22 -39 19 -134 76 -175 168 -424 194 -524 11 -47 39 -61 84 -44 23 8 26 15 26 60 0 48 -58 227 -127 395 -74 180 -97 232 -111 248 -20 22 -64 22 -85 -1z"
       id="path53" />
    <path
       d="M5425 2652 c-57 -27 -236 -145 -259 -171 -11 -11 -27 -21 -37 -21 -28 0 -59 -40 -59 -75 0 -81 64 -221 141 -308 32 -38 67 -60 153 -102 141 -68 167 -74 356 -82 l155 -6 140 47 c190 64 271 117 343 223 36 52 31 125 -15 201 -104 170 -145 195 -463 278 -135 36 -395 45 -455 16z m374 -146 c95 -29 147 -64 158 -104 4 -15 7 -63 8 -107 0 -67 -5 -90 -27 -138 -46 -98 -105 -133 -212 -125 -76 7 -182 53 -218 97 -59 69 -65 212 -13 296 34 55 64 80 121 100 47 18 75 15 183 -19z"
       id="path54" />
    <path
       d="M5655 2348 c-33 -17 -45 -39 -45 -79 0 -57 36 -94 90 -94 68 0 104 57 84 133 -12 42 -85 65 -129 40z"
       id="path55" />
    <path
       d="M8000 2499 c-253 -59 -345 -107 -467 -247 -96 -110 -104 -167 -34 -272 39 -59 108 -99 258 -149 140 -47 172 -49 344 -22 122 19 227 58 272 103 28 27 138 172 167 220 41 67 20 148 -64 250 -59 73 -114 105 -211 123 -99 19 -160 18 -265 -6z m180 -164 c64 -44 83 -94 78 -205 -3 -82 -5 -91 -32 -119 -43 -45 -114 -66 -221 -66 -108 0 -145 16 -176 76 -27 54 -31 188 -5 237 41 79 119 113 247 109 55 -2 74 -8 109 -32z"
       id="path56" />
    <path
       d="M7965 2215 c-57 -56 -13 -155 69 -155 51 0 85 39 86 97 0 33 -5 46 -26 62 -38 30 -98 28 -129 -4z"
       id="path57" />
    <path
       d="M3760 2490 c-11 -11 -20 -28 -20 -37 0 -19 5 -27 86 -144 52 -75 150 -243 197 -335 28 -55 52 -69 93 -54 42 16 40 49 -10 148 -48 95 -133 239 -196 332 -76 111 -109 131 -150 90z"
       id="path58" />
    <path
       d="M1437 2412 c-41 -45 -10 -95 66 -106 21 -3 84 -17 139 -31 121 -30 159 -31 181 -7 41 45 7 90 -81 109 -116 26 -257 53 -273 53 -9 0 -23 -8 -32 -18z"
       id="path59" />
    <path
       d="M3201 2384 c-12 -15 -21 -31 -21 -36 0 -38 97 -156 275 -333 88 -88 174 -180 190 -204 41 -60 58 -70 93 -51 33 19 39 57 16 102 -19 37 -56 77 -245 267 -75 75 -155 163 -179 196 -68 94 -93 105 -129 59z"
       id="path60" />
    <path
       d="M2072 2344 c-38 -26 -49 -64 -56 -187 -3 -65 -8 -122 -10 -125 -6 -10 -55 -287 -61 -347 -2 -27 -10 -86 -17 -130 -7 -46 -13 -176 -13 -307 0 -214 1 -228 21 -255 12 -16 33 -29 48 -31 29 -4 157 60 209 104 16 14 51 36 76 49 25 12 76 47 113 76 37 30 107 78 155 108 48 30 124 77 168 104 123 77 244 148 314 184 79 41 90 50 102 81 11 29 -7 64 -45 84 -13 7 -51 30 -85 50 -103 63 -236 84 -361 57 -28 -6 -54 -8 -57 -5 -3 3 4 32 16 64 27 75 26 93 -2 120 -43 41 -108 26 -205 -46 -18 -14 -34 -23 -37 -21 -2 3 8 30 22 61 18 40 23 65 19 85 -9 35 -186 210 -232 229 -42 18 -54 18 -82 -2z"
       id="path61" />
    <path
       d="M6913 2150 c-55 -22 -42 -61 120 -340 73 -127 87 -145 111 -148 42 -5 69 24 62 66 -3 19 -50 112 -106 206 -55 95 -100 177 -100 183 0 11 -44 43 -57 42 -4 0 -18 -4 -30 -9z"
       id="path62" />
    <path
       d="M6668 2109 c-47 -27 -10 -104 166 -346 43 -59 88 -129 101 -154 13 -25 30 -51 39 -58 24 -20 68 -9 85 20 14 24 13 31 -4 69 -24 53 -81 140 -171 260 -39 52 -81 114 -93 138 -39 76 -77 98 -123 71z"
       id="path63" />
    <path
       d="M1220 2030 c-11 -11 -20 -29 -20 -40 0 -11 9 -29 20 -40 19 -19 34 -20 228 -21 114 -1 218 0 232 1 42 3 70 27 70 60 0 58 -8 60 -271 60 -226 0 -240 -1 -259 -20z"
       id="path64" />
    <path
       d="M6506 1894 c-33 -32 -19 -64 120 -271 74 -111 145 -209 157 -218 45 -31 107 -10 107 38 0 11 -11 32 -24 46 -13 15 -81 112 -151 216 -70 105 -132 193 -139 197 -19 13 -54 9 -70 -8z"
       id="path65" />
    <path
       d="M5240 1885 c-55 -66 99 -218 277 -275 32 -10 78 -26 103 -35 74 -28 141 -34 271 -26 110 6 132 10 189 38 66 31 119 74 121 96 2 25 -3 52 -13 65 -15 17 -63 15 -79 -5 -8 -9 -41 -29 -74 -45 -57 -27 -67 -28 -195 -28 -95 1 -147 5 -175 16 -22 8 -67 24 -100 35 -88 30 -156 72 -208 129 -49 53 -91 66 -117 35z"
       id="path66" />
    <path
       d="M7448 1799 c-50 -29 -43 -73 24 -145 56 -61 109 -90 220 -121 78 -21 114 -26 218 -25 113 0 134 3 215 31 71 24 98 39 128 70 42 46 45 63 17 91 -26 26 -54 25 -93 -4 -18 -13 -63 -34 -101 -46 -63 -21 -83 -22 -200 -17 -177 7 -242 30 -328 116 -64 63 -71 67 -100 50z"
       id="path67" />
    <path
       d="M4430 1720 c-28 -28 -25 -47 15 -131 50 -107 115 -296 115 -336 0 -36 36 -83 63 -83 20 0 65 37 71 58 7 20 2 36 -57 202 -99 277 -149 348 -207 290z"
       id="path68" />
    <path
       d="M1325 1673 c-50 -12 -70 -59 -41 -99 13 -18 28 -19 193 -19 98 -1 190 -4 205 -9 20 -6 31 -3 47 13 31 31 27 66 -12 95 -33 26 -36 26 -203 25 -93 -1 -178 -4 -189 -6z"
       id="path69" />
    <path
       d="M3946 1658 c-24 -34 -21 -47 39 -133 122 -175 217 -323 247 -384 38 -75 64 -92 104 -66 23 15 26 22 22 59 -7 59 -102 217 -280 466 -45 62 -59 76 -85 78 -23 2 -35 -3 -47 -20z"
       id="path70" />
    <path
       d="M4797 1662 c-24 -27 -28 -1 40 -297 15 -66 26 -133 25 -150 -2 -45 22 -75 62 -75 70 0 76 59 26 265 -17 72 -35 152 -41 179 -13 68 -33 96 -68 96 -15 0 -35 -8 -44 -18z"
       id="path71" />
    <path
       d="M5200 1650 c-25 -25 -25 -46 -1 -86 35 -58 201 -173 313 -217 91 -37 210 -37 373 -2 65 14 126 30 136 36 29 15 40 44 30 72 -17 44 -38 44 -232 1 -95 -22 -192 -23 -248 -3 -68 24 -194 104 -261 165 -63 59 -80 64 -110 34z"
       id="path72" />
    <path
       d="M3094 1540 c-12 -4 -24 -15 -27 -24 -3 -8 1 -89 9 -178 8 -90 13 -185 9 -212 -8 -61 12 -96 54 -96 54 0 61 21 61 186 -1 197 -13 293 -41 317 -23 19 -34 20 -65 7z"
       id="path73" />
    <path
       d="M7443 1530 c-25 -10 -38 -48 -29 -78 12 -36 235 -162 288 -162 11 0 45 -7 76 -16 61 -18 181 -15 255 6 49 14 68 50 46 88 l-14 26 -165 1 -165 1 -76 37 c-42 20 -100 52 -130 72 -59 39 -55 37 -86 25z"
       id="path74" />
    <path
       d="M2895 1427 c-17 -13 -18 -30 -16 -206 1 -106 6 -203 11 -216 14 -37 54 -59 80 -45 30 16 38 47 29 115 -4 33 -8 121 -8 196 -1 118 -3 138 -19 152 -22 20 -52 22 -77 4z"
       id="path75" />
    <path
       d="M3725 1326 c-14 -14 -25 -31 -25 -39 0 -18 77 -124 155 -213 101 -115 103 -117 132 -109 50 12 65 53 36 95 -15 22 -116 141 -151 178 -6 8 -26 33 -43 58 -16 24 -34 44 -39 44 -4 0 -15 3 -24 6 -9 3 -26 -5 -41 -20z"
       id="path76" />
    <path
       d="M2685 1246 c-21 -15 -20 -4 -12 -251 5 -146 8 -171 23 -182 26 -19 51 -16 75 8 20 20 21 28 17 203 -3 108 -9 190 -16 202 -19 35 -55 43 -87 20z"
       id="path77" />
  </g>
  <g
     id="layer102"
     fill="#fefefe"
     stroke="none"
     style="fill:#fefefe;fill-opacity:0">
    <path
       d="M0 5970 l0 -5970 4610 0 4610 0 0 5970 0 5970 -4610 0 -4610 0 0 -5970z m4436 5777 c27 -18 121 -87 209 -153 189 -142 303 -220 440 -299 126 -74 316 -198 358 -234 18 -16 58 -47 91 -69 l58 -41 87 73 c96 81 293 214 374 252 64 29 97 30 125 4 29 -27 28 -43 -7 -137 -45 -120 -71 -226 -71 -287 0 -31 3 -56 6 -56 3 0 18 8 32 18 74 51 240 127 341 156 76 22 164 21 183 -1 29 -34 27 -51 -17 -136 -61 -116 -97 -226 -89 -269 17 -86 49 -122 184 -203 58 -35 148 -93 200 -129 132 -91 215 -144 363 -234 197 -118 222 -131 233 -124 5 4 26 35 47 70 54 92 162 228 201 251 40 25 63 26 88 4 23 -21 23 -51 -2 -149 -21 -82 -40 -226 -39 -304 l0 -45 52 56 c65 70 118 111 202 155 74 38 93 41 135 19 47 -24 47 -52 0 -152 -65 -138 -97 -223 -105 -283 l-7 -54 23 17 c138 96 360 207 417 207 11 0 37 6 58 13 22 8 63 17 92 20 44 5 56 3 72 -13 33 -33 25 -66 -28 -123 -42 -46 -115 -141 -178 -232 -12 -17 -31 -49 -42 -72 -12 -23 -35 -61 -51 -85 -32 -48 -101 -190 -101 -208 0 -6 -14 -43 -31 -83 -17 -40 -37 -97 -44 -127 -8 -30 -23 -92 -35 -137 l-21 -83 33 -60 c18 -33 36 -60 39 -60 4 0 10 17 14 38 9 49 52 171 66 188 6 8 25 14 42 14 50 0 87 -51 124 -171 55 -173 64 -271 43 -434 -8 -64 -12 -73 -48 -105 -33 -29 -49 -58 -96 -180 -78 -199 -79 -201 -122 -320 -21 -58 -44 -111 -53 -117 -28 -24 -68 -15 -94 20 -25 33 -70 139 -82 192 -4 17 -33 84 -65 150 -32 66 -66 138 -75 160 l-16 40 -20 -32 c-35 -55 -132 -68 -194 -27 -40 26 -39 28 -84 -176 -38 -176 -41 -195 -50 -287 -9 -100 -26 -139 -65 -149 -53 -13 -76 13 -156 171 -41 83 -96 186 -121 230 -26 44 -61 109 -78 144 l-32 63 -21 -41 c-31 -62 -60 -81 -127 -81 -35 0 -73 8 -101 21 -43 19 -46 19 -55 3 -5 -10 -20 -29 -33 -42 -21 -21 -30 -24 -75 -19 -42 4 -56 10 -77 36 -15 17 -29 31 -32 31 -3 0 -9 -17 -13 -37 -3 -21 -20 -87 -37 -148 -16 -60 -37 -137 -46 -170 -20 -76 -27 -85 -69 -85 -34 0 -83 38 -83 64 0 6 -16 49 -36 96 -46 110 -91 223 -111 280 -25 73 -32 76 -63 26 -48 -75 -137 -103 -225 -70 -74 28 -72 29 -79 -13 -37 -213 -62 -393 -81 -587 -6 -58 -27 -86 -66 -86 -35 0 -62 37 -93 127 -24 69 -62 152 -167 368 -79 162 -71 154 -108 113 -35 -40 -123 -78 -179 -78 -21 1 -54 7 -75 14 -43 16 -43 15 -50 -49 -15 -128 -41 -286 -54 -323 -17 -47 -51 -69 -81 -53 -9 5 -53 46 -97 90 -44 45 -83 81 -87 81 -5 0 -8 -10 -8 -22 0 -59 -88 -137 -178 -160 -24 -6 -46 -17 -49 -25 -3 -7 4 -42 16 -77 31 -92 30 -229 -3 -294 -30 -60 -101 -126 -169 -158 -61 -28 -161 -33 -193 -9 -10 8 -24 15 -29 15 -12 0 -69 -150 -85 -220 -16 -77 -12 -491 6 -589 23 -125 68 -273 115 -381 23 -52 51 -122 64 -155 50 -132 218 -476 281 -576 79 -125 211 -258 349 -352 33 -22 63 -45 66 -50 12 -18 37 1 66 50 32 55 198 292 238 340 51 62 119 36 145 -56 5 -20 17 -76 26 -126 19 -102 73 -357 77 -362 2 -1 36 71 77 160 129 284 187 394 210 400 30 8 63 -6 87 -37 22 -27 99 -257 137 -406 22 -85 41 -149 68 -219 8 -22 11 -20 55 45 66 100 179 310 228 424 28 66 43 80 85 80 42 0 64 -19 74 -65 7 -28 55 -155 77 -200 5 -11 18 -49 28 -85 10 -36 39 -128 64 -205 l45 -140 52 0 51 0 25 70 c13 39 29 86 35 105 5 19 16 51 23 70 8 19 26 78 41 130 76 267 88 301 118 326 15 13 35 24 42 24 28 0 66 -48 120 -152 53 -101 66 -132 120 -286 12 -35 42 -106 66 -158 l44 -96 55 7 c30 4 58 9 61 11 10 6 63 151 141 379 56 165 145 361 176 385 32 26 70 25 99 -2 13 -12 23 -25 23 -28 0 -4 26 -54 59 -111 32 -57 88 -161 124 -232 36 -70 68 -123 72 -118 10 18 36 95 55 166 10 39 28 104 39 145 11 41 21 84 21 95 0 36 47 123 70 130 39 12 78 -13 96 -64 10 -25 24 -62 31 -81 8 -19 17 -46 19 -60 9 -50 36 -137 66 -212 l31 -78 39 0 c51 0 158 -51 192 -90 36 -44 40 -65 32 -208 -4 -70 -9 -165 -11 -212 -3 -47 -10 -116 -16 -155 -5 -38 -14 -101 -19 -140 -30 -248 -57 -370 -103 -470 l-32 -70 -7 -245 c-3 -135 -12 -297 -18 -360 -6 -63 -13 -135 -14 -160 -5 -84 -102 -381 -171 -521 -50 -101 -109 -197 -167 -272 -29 -37 -80 -102 -113 -145 -33 -42 -116 -135 -186 -207 -111 -115 -130 -140 -163 -211 -20 -45 -36 -91 -36 -103 0 -12 -11 -39 -25 -61 -20 -32 -31 -40 -54 -40 -51 0 -110 94 -148 237 -10 35 -23 63 -29 63 -22 0 -73 -75 -104 -153 -16 -41 -30 -80 -30 -86 0 -6 -11 -18 -25 -27 -76 -50 -143 89 -154 324 -2 29 -78 -2 -150 -62 -41 -35 -43 -35 -72 -20 -17 8 -34 26 -39 40 -16 42 -11 150 10 226 11 40 20 77 20 81 0 14 -260 -7 -290 -23 -10 -5 -38 -32 -63 -60 -49 -55 -87 -139 -87 -195 0 -39 -29 -75 -59 -75 -30 0 -82 50 -104 100 l-20 45 -23 -50 c-13 -27 -23 -56 -23 -64 -1 -22 -32 -51 -53 -51 -60 0 -130 96 -143 198 -15 116 -13 112 -48 112 -41 -1 -59 -15 -85 -67 -35 -67 -82 -132 -131 -180 -86 -83 -145 -116 -296 -164 -111 -35 -157 -67 -189 -133 -25 -48 -29 -69 -28 -123 2 -62 -9 -100 -32 -115 -21 -14 -87 -8 -125 11 -63 33 -139 132 -160 209 -6 22 -9 20 -38 -25 -43 -67 -58 -101 -72 -157 -21 -87 -36 -106 -82 -106 l-40 0 -55 116 c-30 63 -57 134 -61 157 -3 23 -7 44 -9 46 -7 8 -53 -30 -90 -75 -99 -118 -109 -127 -137 -120 -40 10 -58 55 -64 161 l-6 92 -60 7 c-33 3 -114 6 -181 6 -171 -1 -238 -29 -332 -143 -44 -54 -76 -67 -113 -46 -36 20 -52 59 -56 137 -2 37 -4 70 -4 75 -2 15 -56 6 -105 -17 -28 -14 -68 -43 -89 -65 -40 -44 -60 -50 -95 -25 -20 14 -22 23 -22 109 0 91 -1 94 -28 113 -15 11 -37 22 -49 26 -12 4 -25 16 -28 27 -9 26 -19 24 -73 -13 -26 -18 -114 -63 -195 -100 -303 -138 -409 -239 -496 -471 -59 -156 -156 -112 -181 81 -5 35 -11 66 -13 69 -8 8 -89 -107 -116 -164 -18 -40 -30 -53 -52 -58 -68 -15 -123 68 -173 259 l-22 84 -59 -44 c-83 -62 -101 -80 -142 -144 -75 -115 -120 -143 -163 -100 -18 18 -20 33 -20 135 0 85 5 134 21 190 11 41 18 79 14 84 -3 5 -22 15 -43 22 -20 6 -55 22 -77 34 -22 13 -98 53 -170 89 -71 37 -132 70 -135 74 -3 4 -24 20 -47 36 -23 15 -58 52 -78 80 -35 52 -85 185 -85 229 0 12 -7 54 -15 92 -8 39 -15 111 -15 162 0 111 -2 113 -122 113 -77 0 -86 -2 -140 -36 -64 -39 -88 -39 -114 1 -15 23 -14 28 9 78 14 30 52 83 85 118 l61 64 -86 5 c-69 4 -87 9 -99 24 -25 34 -16 75 42 186 75 148 158 226 299 280 98 37 104 41 128 89 70 140 155 268 229 346 26 28 48 60 48 71 0 32 -46 110 -117 196 -74 90 -305 320 -333 330 -22 8 -51 49 -53 75 -2 39 23 78 68 102 25 13 45 27 45 30 0 8 -102 71 -114 71 -5 0 -34 12 -66 26 -98 44 -99 77 -1 186 28 31 51 58 51 61 0 2 -54 5 -121 5 -134 1 -181 17 -187 61 -7 44 8 67 73 115 36 26 114 96 172 154 l106 107 -7 120 c-6 112 -15 175 -52 335 -8 36 -14 78 -14 95 0 16 -9 72 -19 125 -11 52 -23 119 -28 149 l-8 54 -54 18 c-29 10 -74 21 -100 25 -68 9 -135 44 -139 73 -8 52 5 67 90 110 l83 40 -150 1 c-212 1 -256 14 -255 79 1 32 28 65 105 126 33 27 80 68 105 91 25 24 61 55 80 69 19 14 34 29 33 32 -2 4 -36 8 -75 9 -114 3 -168 32 -168 89 0 36 31 69 155 163 44 33 104 85 134 115 l54 55 -8 69 c-4 37 -9 77 -11 88 -9 41 -26 316 -31 492 -4 173 -6 182 -26 196 -24 15 -230 81 -287 91 -53 10 -76 37 -72 86 3 32 14 50 57 93 29 30 73 69 99 87 51 37 57 50 23 50 -13 0 -66 9 -118 20 -75 15 -99 24 -117 46 -27 31 -25 41 29 140 54 99 118 156 264 235 27 15 30 21 30 65 -1 27 -6 101 -13 164 -7 63 -12 213 -12 333 0 182 3 225 16 253 19 40 75 81 166 124 35 16 123 66 197 112 l133 83 38 90 c20 50 80 178 133 285 151 307 212 390 291 390 48 0 55 -26 49 -196 -3 -85 -4 -154 -1 -154 3 0 26 35 50 78 25 42 65 100 89 127 78 90 197 205 213 205 8 0 27 -11 43 -24 24 -21 29 -34 33 -88 l5 -63 39 70 c53 95 130 195 219 283 60 59 80 73 106 74 58 2 63 -13 62 -176 -2 -138 9 -226 28 -226 11 0 137 86 160 109 9 9 56 43 104 76 48 32 115 82 149 112 35 30 99 79 143 108 95 64 233 166 370 273 l100 79 -4 186 c-3 163 0 198 19 284 29 132 76 226 145 297 67 68 99 73 139 25 14 -17 26 -34 26 -39 0 -17 83 -190 91 -190 4 0 11 21 15 48 30 203 152 415 256 443 56 15 86 -6 132 -90 21 -38 51 -81 65 -95 l26 -25 -3 39 c-4 39 24 236 39 277 10 28 60 73 80 73 10 0 39 -15 65 -33z"
       id="path78"
       style="fill:#fefefe;fill-opacity:0" />
    <path
       d="M4389 11604 c0 -11 -3 -50 -8 -88 -7 -70 9 -230 29 -265 14 -27 16 -99 2 -113 -6 -6 -24 -11 -40 -11 -23 0 -49 20 -137 109 -59 60 -125 136 -148 169 -22 33 -42 62 -43 64 -12 14 -101 -133 -109 -178 -3 -18 -12 -46 -20 -62 -8 -15 -15 -41 -15 -58 0 -16 -9 -58 -20 -93 -11 -34 -20 -88 -20 -119 0 -41 -5 -60 -18 -72 -21 -19 -54 -22 -81 -7 -38 20 -123 168 -173 303 -5 15 -13 27 -16 27 -24 0 -84 -151 -102 -255 -12 -69 -9 -300 6 -407 7 -54 13 -47 -126 -150 -52 -39 -108 -82 -125 -97 -16 -15 -52 -42 -80 -61 -27 -19 -52 -37 -55 -40 -7 -8 -137 -100 -187 -132 -24 -15 -62 -45 -85 -66 -24 -21 -90 -72 -148 -113 -58 -41 -113 -82 -123 -92 -10 -10 -41 -33 -70 -51 -29 -19 -60 -43 -70 -53 -10 -11 -36 -28 -58 -38 -39 -18 -42 -18 -76 0 -59 32 -92 114 -102 250 l-6 90 -48 -60 c-63 -79 -153 -230 -195 -330 -46 -107 -60 -121 -108 -109 -35 9 -38 12 -56 74 -10 36 -18 86 -18 113 0 26 -4 47 -9 47 -15 0 -115 -130 -161 -209 -23 -41 -58 -107 -77 -148 -49 -106 -101 -131 -147 -70 -19 25 -21 44 -24 183 -2 85 -7 154 -11 154 -10 0 -235 -456 -256 -520 -23 -72 -37 -86 -158 -161 -56 -34 -124 -77 -152 -95 -27 -18 -79 -46 -115 -62 -105 -47 -100 -35 -100 -248 0 -101 7 -277 16 -390 11 -142 13 -214 6 -229 -6 -12 -32 -32 -59 -44 -111 -52 -210 -128 -239 -183 -8 -16 -11 -28 -7 -28 5 0 40 -7 78 -14 39 -8 88 -17 110 -20 167 -20 188 -29 183 -79 -2 -23 -12 -37 -36 -52 -186 -113 -270 -179 -241 -189 102 -37 237 -75 250 -71 9 3 28 -4 42 -16 l27 -20 0 -152 c0 -84 7 -197 15 -252 8 -55 15 -143 15 -195 0 -52 7 -130 15 -173 8 -43 15 -105 15 -137 0 -55 -3 -63 -48 -122 -28 -38 -82 -89 -134 -128 -48 -36 -88 -68 -88 -71 0 -3 53 -9 118 -12 64 -3 125 -8 134 -12 25 -10 33 -61 14 -90 -8 -13 -55 -54 -103 -91 -49 -37 -92 -72 -98 -78 -5 -6 -39 -36 -74 -66 l-65 -55 155 -7 c248 -10 294 -24 287 -88 -2 -19 -24 -39 -92 -84 l-88 -59 43 -18 c24 -10 53 -18 65 -18 42 -2 84 -71 84 -139 0 -20 9 -77 19 -127 11 -49 24 -121 30 -160 6 -38 17 -104 26 -145 19 -94 48 -414 41 -459 -4 -27 -30 -58 -138 -164 l-133 -130 157 5 c171 6 198 0 198 -47 0 -40 -10 -53 -79 -107 -36 -28 -81 -65 -98 -82 l-33 -30 58 -29 c31 -16 94 -53 138 -83 45 -30 86 -54 93 -54 22 0 51 -40 51 -70 0 -51 -30 -70 -104 -69 -113 3 -111 -3 30 -136 69 -65 153 -155 187 -199 33 -45 69 -89 79 -100 9 -10 24 -34 33 -52 9 -19 20 -34 26 -34 5 0 41 27 80 59 82 69 214 141 258 141 22 0 35 -7 47 -25 26 -40 7 -68 -73 -109 -94 -47 -218 -142 -283 -217 -158 -182 -233 -286 -303 -426 -30 -59 -96 -119 -141 -128 -101 -21 -220 -113 -267 -206 -16 -32 -29 -61 -29 -64 0 -3 26 -5 58 -5 107 -1 199 -30 208 -66 12 -48 -4 -74 -73 -117 l-67 -42 91 -11 c54 -7 105 -19 125 -31 l33 -19 7 -107 c7 -124 33 -298 55 -377 24 -88 57 -135 125 -181 59 -39 307 -168 399 -207 25 -10 62 -34 83 -52 42 -37 42 -43 8 -140 -11 -30 -23 -68 -26 -84 l-7 -29 41 37 c70 63 198 154 233 165 42 14 81 2 98 -30 6 -13 15 -56 20 -97 8 -76 35 -172 47 -171 4 0 33 35 64 78 103 139 135 171 174 171 57 0 74 -27 74 -115 0 -81 10 -94 31 -43 7 18 58 78 114 133 102 103 200 170 312 214 185 72 355 185 498 330 116 117 137 129 175 91 36 -36 25 -56 -95 -179 -63 -65 -115 -121 -115 -125 0 -4 21 -16 48 -28 71 -31 82 -44 82 -100 0 -26 2 -48 5 -48 4 0 18 6 34 14 34 18 184 56 220 56 15 0 37 -7 50 -16 22 -16 23 -21 17 -91 -8 -84 -13 -83 76 -19 26 19 78 44 115 57 59 20 87 23 218 23 221 0 282 -9 318 -45 26 -27 29 -35 24 -74 -2 -25 -3 -45 -1 -45 3 0 29 20 60 45 56 46 142 95 167 95 34 0 54 -44 61 -128 4 -46 12 -97 19 -114 l13 -31 39 68 c77 131 159 200 211 176 31 -14 60 -62 68 -113 8 -47 36 -106 64 -131 19 -17 19 -17 24 31 6 58 49 156 86 195 34 37 134 86 242 121 47 16 103 38 126 51 60 35 155 142 203 229 54 99 92 125 190 133 76 6 125 -7 141 -36 5 -10 12 -56 16 -104 4 -48 10 -87 13 -86 3 0 19 27 34 60 70 147 164 173 185 50 l7 -42 50 62 c102 128 145 144 396 155 l155 7 28 -29 c30 -32 30 -32 -5 -167 -12 -48 -20 -89 -17 -92 2 -3 31 4 63 15 74 25 135 26 166 1 19 -15 23 -30 28 -104 3 -47 8 -88 11 -91 3 -3 21 14 40 37 18 23 55 59 81 80 40 31 55 37 96 37 55 0 93 -28 93 -69 0 -12 4 -41 9 -64 6 -23 13 -55 16 -72 7 -29 9 -26 50 56 38 74 64 107 178 225 74 77 156 166 181 199 26 33 69 89 96 124 130 166 223 368 295 637 25 93 39 241 51 544 6 167 1 184 -43 152 -16 -12 -81 -38 -144 -58 -63 -20 -150 -49 -194 -65 -115 -41 -192 -58 -329 -75 -156 -18 -229 -35 -291 -66 -27 -14 -61 -29 -75 -33 -78 -23 -227 -137 -301 -231 -37 -45 -49 -54 -76 -54 -56 0 -63 17 -63 151 0 65 -3 119 -7 119 -5 0 -40 -21 -80 -48 -49 -32 -82 -62 -102 -94 -34 -54 -68 -69 -105 -45 -13 9 -26 29 -29 46 -6 29 4 106 18 144 13 32 -10 17 -82 -53 -75 -74 -100 -83 -132 -51 -29 29 -42 92 -44 210 -1 79 3 115 15 143 20 46 56 58 94 33 23 -15 25 -22 20 -53 -12 -70 -18 -162 -11 -162 4 0 20 11 36 24 42 36 187 106 218 106 63 0 87 -49 55 -112 l-16 -31 53 30 c85 47 188 85 215 79 13 -4 31 -17 40 -30 13 -22 14 -28 1 -53 -18 -35 -40 -124 -33 -131 3 -3 19 9 35 25 16 17 49 45 74 62 58 39 291 151 316 151 10 0 38 7 61 15 23 8 61 15 84 15 67 0 296 46 376 75 41 14 95 32 120 39 190 55 265 96 327 179 65 88 88 147 107 272 9 61 22 133 27 160 17 82 48 389 55 545 l6 145 -46 27 c-26 16 -55 28 -65 28 -17 0 -130 -38 -176 -60 -11 -5 -54 -19 -95 -31 -41 -12 -106 -35 -145 -51 -38 -16 -94 -35 -125 -42 -30 -8 -89 -24 -130 -35 -41 -12 -106 -26 -145 -31 -38 -6 -83 -14 -100 -20 -16 -5 -46 -12 -65 -15 -19 -3 -51 -10 -70 -15 -20 -5 -84 -14 -142 -19 -59 -5 -112 -12 -118 -16 -10 -6 -86 -13 -375 -35 -175 -12 -754 -13 -852 0 -549 72 -817 138 -1050 261 -116 61 -309 179 -323 198 -3 4 -35 28 -71 53 -99 70 -251 228 -319 330 -71 108 -188 337 -258 503 -184 440 -181 433 -226 641 -30 135 -42 376 -28 549 10 131 40 236 106 377 20 43 36 86 36 97 0 31 -44 141 -90 225 -30 54 -55 85 -85 106 -110 76 -168 182 -169 311 -1 69 2 82 41 161 40 80 46 87 102 116 81 44 160 45 218 3 53 -38 107 -103 134 -160 26 -56 57 -101 70 -101 5 0 9 14 9 32 0 34 -28 82 -126 218 -71 99 -87 141 -88 230 0 76 23 129 83 189 63 63 172 88 244 57 95 -41 138 -151 177 -456 9 -72 23 -114 40 -125 6 -4 41 11 78 33 115 68 135 78 210 106 39 15 72 32 72 36 0 5 -17 22 -37 37 -54 40 -128 115 -158 161 -22 34 -26 50 -26 121 -1 72 3 91 28 139 39 79 92 115 177 120 123 8 167 -27 250 -195 42 -84 156 -250 186 -268 5 -3 27 -1 47 5 37 11 117 26 273 50 97 16 105 23 80 78 -18 40 -79 105 -208 222 -70 64 -87 108 -79 207 11 147 103 210 252 172 79 -20 128 -87 166 -226 12 -43 26 -87 32 -98 19 -37 94 -129 146 -180 29 -27 61 -67 72 -88 l20 -39 57 6 c31 3 121 8 200 12 78 3 142 10 142 14 0 27 -98 128 -150 155 -62 32 -128 91 -162 144 -25 40 -28 54 -28 124 0 63 4 87 21 113 34 56 73 77 139 77 117 -1 190 -67 240 -219 18 -52 35 -94 38 -94 4 0 7 40 7 88 0 80 3 92 28 131 35 52 84 75 146 68 83 -9 121 -77 121 -217 0 -85 30 -211 57 -243 10 -12 35 -39 57 -60 37 -36 42 -38 85 -33 44 6 186 19 354 33 42 3 77 9 77 13 0 5 -55 60 -122 123 -108 101 -126 123 -147 176 -19 47 -23 72 -18 114 7 67 40 134 85 172 30 26 44 30 91 30 38 -1 65 -7 84 -19 35 -23 88 -101 152 -221 27 -49 77 -131 111 -182 35 -50 75 -115 89 -144 l27 -52 116 7 c65 3 181 9 258 13 l142 6 6 45 c10 72 7 145 -9 226 -19 100 -30 121 -40 75 -9 -39 -50 -126 -73 -151 -8 -10 -29 -18 -47 -18 -38 0 -47 10 -105 110 -137 238 -168 279 -267 355 -53 41 -63 43 -63 14 0 -41 -24 -100 -47 -119 -20 -15 -29 -17 -54 -8 -35 12 -47 47 -31 92 6 17 14 51 18 76 11 80 23 107 54 120 16 7 40 10 52 7 38 -10 180 -108 229 -159 l47 -48 21 72 c59 207 163 454 247 585 18 29 45 76 60 105 14 29 35 63 47 76 26 28 24 28 -59 -4 -82 -30 -155 -73 -284 -165 -127 -90 -142 -96 -175 -75 -24 15 -25 21 -25 102 0 109 53 325 92 372 6 7 8 16 4 20 -9 8 -143 -130 -209 -216 -40 -52 -52 -62 -78 -62 -43 0 -56 18 -70 95 -12 70 -8 304 6 338 4 9 3 17 -1 17 -5 0 -25 -28 -44 -62 -60 -106 -67 -117 -80 -133 -7 -8 -23 -15 -36 -15 -29 0 -148 58 -224 110 -30 21 -121 77 -202 124 -82 48 -163 99 -180 115 -32 27 -253 169 -350 226 -104 59 -168 170 -168 290 0 50 8 87 36 160 20 53 34 99 31 101 -8 8 -179 -66 -260 -112 -44 -25 -99 -61 -124 -80 -51 -39 -91 -44 -119 -13 -17 19 -19 37 -19 168 1 122 4 157 23 215 12 37 22 72 22 77 0 24 -178 -96 -300 -201 -45 -39 -90 -75 -101 -81 -36 -19 -112 19 -237 120 -80 64 -219 155 -360 237 -112 64 -291 187 -486 331 -141 105 -156 113 -157 87z m98 -616 c11 -13 46 -79 78 -148 83 -177 250 -491 285 -535 32 -40 37 -64 20 -96 -14 -26 -73 -26 -99 0 -33 33 -124 196 -240 431 -62 124 -119 237 -127 252 -43 80 25 160 83 96z m496 -50 c37 -29 317 -625 317 -677 0 -51 -16 -71 -55 -71 -39 0 -42 4 -71 85 -22 62 -93 215 -215 460 -38 77 -69 150 -69 162 0 45 55 69 93 41z m-1033 -198 c5 0 44 -62 86 -137 105 -189 174 -298 271 -432 87 -119 101 -160 66 -187 -42 -32 -77 -8 -159 109 -120 170 -210 315 -297 479 -48 90 -55 111 -47 132 10 28 39 48 58 41 8 -3 18 -5 22 -5z m-343 -380 c108 -168 252 -350 313 -398 34 -27 39 -65 13 -94 -32 -36 -88 -15 -145 54 -20 24 -48 57 -63 73 -104 117 -245 331 -245 374 0 34 29 63 59 59 19 -2 37 -20 68 -68z m2299 -269 c11 -10 28 -40 38 -67 10 -27 24 -64 32 -81 8 -18 21 -50 28 -70 7 -21 23 -59 35 -85 11 -27 30 -69 42 -95 11 -27 66 -142 122 -256 98 -201 101 -210 86 -235 -15 -28 -61 -41 -86 -24 -16 10 -198 387 -269 556 -30 72 -59 140 -64 151 -50 109 -61 177 -33 207 21 23 44 23 69 -1z m-1104 -38 c30 -35 38 -165 38 -633 0 -404 -2 -460 -16 -474 -19 -20 -43 -20 -71 -1 -21 15 -21 20 -26 457 -3 280 -9 477 -17 535 -12 86 -12 94 5 113 22 25 67 26 87 3z m1545 -58 c12 -8 58 -84 104 -168 95 -177 160 -285 246 -416 35 -52 63 -99 63 -105 0 -29 -32 -56 -65 -56 -33 0 -38 5 -118 128 -136 207 -317 533 -317 571 0 17 42 61 59 61 4 0 16 -7 28 -15z m-844 -92 c8 -10 39 -79 67 -153 64 -166 192 -460 227 -518 30 -53 25 -85 -16 -102 -50 -20 -67 -1 -141 153 -94 199 -94 199 -155 358 -31 79 -63 158 -71 176 -18 40 -18 68 2 87 21 21 67 20 87 -1z m1456 -188 c89 -148 195 -305 280 -418 82 -108 97 -147 69 -175 -7 -7 -27 -12 -44 -12 -35 0 -43 8 -142 140 -58 78 -224 330 -277 420 -55 96 -47 144 24 138 33 -3 39 -9 90 -93z m-3045 -47 c8 -13 17 -50 21 -83 7 -75 31 -235 51 -340 8 -44 17 -96 19 -115 3 -19 10 -60 15 -90 6 -30 11 -88 12 -127 2 -65 0 -74 -21 -92 -29 -26 -42 -26 -71 -3 -20 16 -24 32 -31 128 -5 60 -16 141 -24 179 -9 39 -17 86 -20 105 -2 19 -11 76 -19 125 -18 106 -36 251 -36 282 0 51 76 74 104 31z m429 -113 c15 -15 33 -107 61 -315 35 -258 33 -270 -33 -270 -49 0 -54 13 -76 180 -9 69 -23 166 -31 216 -17 112 -18 176 -2 192 17 17 64 15 81 -3z m-1599 -87 c14 -19 16 -68 16 -327 0 -335 -1 -341 -61 -341 -57 0 -59 14 -59 345 0 333 2 345 60 345 18 0 34 -8 44 -22z m705 -104 c11 -14 23 -46 26 -72 12 -97 65 -417 97 -589 19 -105 19 -114 4 -138 -22 -33 -69 -34 -90 -2 -16 24 -32 85 -40 156 -3 24 -12 78 -20 120 -8 42 -22 128 -32 191 -9 63 -25 158 -34 210 -18 95 -15 123 14 142 22 15 55 7 75 -18z m-1263 -108 c18 -14 19 -29 19 -348 0 -183 -4 -350 -8 -370 -9 -44 -30 -68 -60 -68 -52 1 -51 -9 -49 391 2 331 4 375 19 391 19 22 52 23 79 4z m-506 -126 c24 -24 24 -36 6 -149 -8 -47 -20 -141 -26 -209 -11 -135 -27 -187 -59 -197 -28 -8 -59 2 -71 24 -9 18 28 388 49 481 15 68 61 90 101 50z m4943 -26 c254 -72 352 -114 477 -203 47 -33 95 -67 108 -76 46 -33 18 -95 -43 -95 -30 0 -52 11 -113 58 -43 31 -102 69 -132 84 -75 37 -190 79 -190 70 1 -4 7 -18 15 -32 18 -32 19 -94 1 -109 -10 -9 -49 -10 -133 -6 l-118 6 28 -25 c37 -34 38 -91 2 -108 -37 -17 -76 5 -166 91 -83 80 -97 112 -63 145 25 25 59 29 183 23 l116 -6 -62 59 c-71 67 -82 106 -41 134 28 20 23 21 131 -10z m-5317 -48 c15 -23 13 -34 -21 -178 -77 -323 -91 -358 -144 -358 -36 0 -65 32 -58 62 3 13 17 61 30 108 13 47 34 130 47 185 31 137 40 167 58 188 23 26 68 22 88 -7z m4094 -64 c73 -36 121 -148 103 -237 -26 -124 -132 -205 -268 -205 -68 0 -74 2 -115 37 -54 47 -79 102 -80 174 0 88 9 117 54 162 70 72 229 108 306 69z m-895 -401 c229 -11 265 -21 265 -75 0 -27 -6 -40 -25 -52 -23 -15 -34 -15 -98 -5 -83 14 -417 29 -423 20 -2 -4 10 -12 26 -19 32 -13 70 -54 70 -74 0 -27 -29 -48 -76 -57 -68 -12 -354 -102 -354 -111 0 -5 12 -8 27 -8 15 0 37 -10 50 -22 41 -38 23 -91 -35 -104 -92 -20 -302 -100 -302 -114 0 -4 35 -17 78 -29 42 -11 83 -28 90 -38 28 -39 1 -93 -48 -93 -16 0 -56 9 -91 20 -35 10 -88 24 -117 30 -87 19 -130 69 -102 120 13 24 95 79 180 121 81 39 78 36 52 55 -27 19 -30 74 -4 96 32 29 117 65 265 112 81 26 147 51 147 56 0 4 -18 20 -41 35 -22 16 -47 42 -55 58 -14 25 -14 31 0 52 9 13 28 26 43 28 50 7 284 6 478 -2z m-2008 -159 c30 -19 33 -70 32 -505 0 -243 -4 -491 -8 -551 -7 -96 -10 -111 -30 -127 -30 -24 -46 -24 -71 1 -20 20 -20 30 -18 590 3 556 3 570 23 584 22 17 53 20 72 8z m499 -97 c12 -19 15 -37 10 -73 -3 -26 -8 -77 -11 -112 -3 -36 -12 -121 -20 -190 -8 -69 -21 -237 -31 -375 -9 -137 -19 -266 -23 -285 -9 -46 -47 -62 -86 -36 l-26 17 6 142 c7 189 32 486 56 677 10 85 19 170 19 189 0 67 72 98 106 46z m-1392 2 c18 -13 22 -37 81 -417 9 -58 37 -210 62 -337 26 -137 43 -243 39 -258 -14 -54 -100 -56 -110 -3 -2 13 -13 66 -24 118 -37 170 -83 431 -107 600 -8 63 -20 145 -25 182 -13 87 -13 85 10 108 23 23 49 26 74 7z m-486 -124 c16 -15 24 -47 42 -168 12 -82 28 -184 36 -225 7 -41 16 -91 19 -110 9 -61 37 -171 72 -286 46 -156 44 -208 -9 -227 -23 -8 -65 27 -71 60 -3 16 -17 69 -32 118 -15 50 -28 98 -30 107 -2 9 -10 43 -19 75 -33 128 -83 423 -92 549 -6 88 -6 92 17 108 30 20 42 20 67 -1z m1130 -1145 c16 -14 16 -103 -2 -336 -8 -103 -17 -286 -21 -407 -3 -121 -8 -233 -11 -250 -12 -67 -64 -92 -103 -51 -21 23 -21 26 -11 222 6 109 15 291 20 404 17 344 24 401 50 422 23 18 51 17 78 -4z m-1051 -93 c11 -8 23 -25 26 -37 3 -13 12 -52 20 -88 45 -192 121 -468 207 -745 46 -151 50 -187 18 -209 -59 -41 -76 -17 -137 189 -52 175 -67 224 -100 335 -10 36 -22 76 -25 90 -4 14 -27 103 -51 198 -49 188 -56 255 -27 271 24 15 44 13 69 -4z m1476 -63 c15 -16 15 -33 7 -149 -5 -71 -14 -168 -19 -214 -6 -46 -15 -148 -20 -226 -13 -185 -35 -227 -107 -209 -31 8 -39 40 -25 108 5 29 15 114 21 188 27 331 43 476 56 498 18 27 64 30 87 4z m509 -32 c17 -24 18 -30 4 -85 -20 -85 -36 -355 -36 -592 0 -219 18 -414 51 -563 11 -52 27 -122 34 -156 36 -161 118 -361 195 -474 20 -30 44 -69 54 -87 9 -18 39 -59 67 -93 62 -75 81 -117 67 -145 -27 -51 -66 -47 -113 13 -21 26 -44 52 -51 58 -24 20 -177 270 -214 349 -86 187 -148 420 -195 730 -22 145 -20 592 4 838 16 170 20 190 42 213 29 31 65 29 91 -6z m320 -17 c26 -23 24 -189 -3 -353 -18 -110 -20 -155 -16 -380 2 -149 9 -269 15 -289 6 -19 14 -57 17 -85 3 -28 12 -76 19 -106 8 -30 17 -72 20 -92 8 -43 59 -204 104 -324 52 -142 171 -345 267 -456 33 -39 76 -92 95 -117 19 -26 46 -58 58 -72 13 -13 43 -49 67 -79 23 -30 70 -80 104 -112 37 -34 61 -64 61 -77 0 -29 -35 -61 -65 -61 -30 0 -121 82 -198 180 -29 36 -55 66 -59 68 -4 2 -24 27 -45 55 -20 29 -60 77 -88 107 -168 181 -352 565 -419 874 -58 268 -65 325 -72 566 -5 202 -3 257 14 395 11 88 23 202 27 253 6 78 10 95 28 107 28 19 46 19 69 -2z m-1728 -105 c15 -25 23 -158 32 -489 l5 -187 -27 -21 c-33 -26 -36 -26 -65 -2 -26 21 -26 14 -45 496 -6 173 -5 192 10 208 25 25 72 22 90 -5z m879 -1173 c8 -8 24 -47 36 -87 12 -40 38 -129 57 -198 20 -69 55 -180 77 -247 43 -132 44 -166 2 -185 -41 -19 -68 9 -105 109 -18 48 -38 111 -45 138 -7 28 -29 106 -50 175 -81 275 -77 260 -60 286 18 28 65 33 88 9z m-1194 -156 c18 -20 19 -41 23 -447 2 -235 0 -439 -5 -454 -15 -48 -89 -50 -107 -2 -6 15 -10 203 -10 454 0 429 0 429 22 450 28 26 52 25 77 -1z m814 -87 c9 -10 19 -36 22 -57 4 -22 12 -69 20 -105 40 -196 52 -261 61 -341 6 -54 5 -58 -21 -75 -25 -16 -30 -16 -54 -3 -30 17 -32 25 -61 174 -68 358 -70 367 -58 390 21 39 64 47 91 17z m-453 -12 c11 -11 20 -31 20 -44 0 -14 6 -55 14 -93 8 -37 17 -86 20 -108 8 -52 33 -182 53 -270 24 -102 22 -154 -6 -177 -13 -10 -31 -18 -41 -18 -27 0 -60 48 -60 87 0 19 -11 91 -25 161 -47 237 -54 277 -66 359 -11 76 -11 84 6 103 23 26 59 26 85 0z m916 -738 c6 -4 18 -20 27 -37 14 -29 84 -244 92 -285 13 -67 98 -293 147 -390 32 -63 58 -121 58 -129 0 -44 -72 -68 -103 -33 -54 60 -143 268 -206 482 -36 123 -88 285 -107 333 -2 7 5 25 16 40 21 26 53 34 76 19z m448 -80 c8 -16 51 -122 95 -235 72 -187 151 -360 187 -412 21 -29 17 -75 -8 -102 -38 -41 -87 -23 -101 38 -4 14 -24 57 -45 96 -42 75 -107 230 -192 456 -50 132 -51 138 -36 162 24 37 80 35 100 -3z m-938 -164 c16 -17 215 -601 221 -650 4 -31 1 -39 -20 -53 -29 -18 -73 -12 -86 14 -21 39 -211 625 -211 649 0 15 4 32 8 38 16 24 65 25 88 2z m-714 -291 c34 -69 111 -298 168 -499 41 -141 42 -149 26 -173 -20 -30 -65 -34 -89 -7 -8 9 -36 89 -62 177 -25 88 -66 219 -91 290 -82 233 -79 222 -66 250 10 22 17 26 50 23 34 -3 39 -7 64 -61z m491 36 c8 -10 18 -36 22 -58 12 -68 71 -313 115 -482 17 -62 30 -122 30 -134 0 -55 -75 -81 -105 -35 -8 13 -22 52 -29 87 -8 35 -26 109 -41 164 -34 129 -95 402 -95 425 0 45 71 68 103 33z m2629 -190 c23 -20 24 -81 3 -178 -9 -38 -18 -90 -21 -115 -15 -136 -33 -214 -50 -227 -25 -18 -69 -16 -89 4 -19 18 -19 16 14 203 11 63 27 158 36 210 16 98 28 120 69 120 11 0 28 -7 38 -17z m223 -3 c15 -17 17 -32 11 -127 -4 -59 -13 -155 -21 -213 -8 -58 -17 -125 -20 -149 -13 -108 -55 -191 -97 -191 -10 0 -27 9 -39 21 -23 23 -22 34 4 127 9 30 18 81 22 115 3 34 13 114 21 177 7 63 14 139 14 169 0 63 19 91 60 91 15 0 35 -9 45 -20z m333 -65 c27 -20 25 -44 -16 -170 -16 -49 -39 -133 -52 -185 -38 -163 -64 -201 -126 -186 -33 9 -41 48 -21 105 9 25 26 87 38 136 31 130 79 277 97 298 19 21 50 22 80 2z m2916 -193 c89 -49 113 -114 81 -215 -16 -53 -16 -107 0 -62 50 136 81 169 169 181 58 8 84 1 130 -35 85 -68 137 -169 142 -280 3 -68 0 -80 -29 -135 -84 -158 -298 -313 -457 -331 -30 -4 -99 -15 -153 -26 -138 -26 -230 -11 -387 65 -171 82 -256 151 -278 224 -19 64 -15 166 8 213 46 88 92 119 183 119 44 0 62 -6 95 -30 43 -31 102 -41 102 -17 0 7 -7 23 -16 36 -9 12 -19 51 -21 85 -10 115 45 177 189 215 109 29 182 27 242 -7z m-1852 -84 c33 -25 228 -400 228 -436 0 -28 -34 -54 -66 -50 -24 2 -35 15 -67 73 -97 176 -187 354 -187 369 0 22 36 56 58 56 10 0 26 -6 34 -12z m-2524 -85 c48 -49 155 -162 237 -253 83 -91 169 -185 191 -210 56 -61 62 -83 30 -115 -14 -14 -33 -25 -42 -25 -20 0 -170 153 -349 355 -73 83 -156 172 -184 200 -37 35 -51 57 -51 77 0 29 31 58 62 58 10 0 58 -39 106 -87z m2967 3 c39 -59 165 -428 165 -482 0 -36 -36 -84 -62 -84 -32 0 -58 31 -58 69 0 37 -52 201 -108 341 -44 111 -47 135 -23 159 28 28 67 27 86 -3z m334 -45 c14 -14 21 -40 25 -98 4 -43 13 -125 21 -183 8 -58 18 -144 21 -191 6 -79 5 -88 -15 -108 -26 -26 -41 -26 -73 -2 -20 16 -25 30 -26 68 -1 26 -8 93 -16 148 -18 116 -36 283 -36 319 0 31 32 66 60 66 11 0 29 -9 39 -19z m-3793 -56 c33 -24 91 -70 131 -102 238 -193 363 -286 410 -308 47 -22 68 -57 52 -87 -39 -75 -102 -45 -391 184 -37 29 -113 90 -170 135 -175 137 -192 160 -151 205 25 28 56 22 119 -27z m2419 -1 c82 -18 254 -81 341 -125 68 -33 201 -158 211 -197 8 -34 -12 -70 -43 -78 -23 -6 -35 2 -100 68 -80 82 -129 111 -294 171 -88 32 -190 57 -235 57 -56 0 -77 93 -25 113 27 10 74 7 145 -9z m-2940 -183 c17 -10 53 -38 80 -62 148 -132 256 -216 425 -333 91 -63 109 -84 101 -114 -4 -15 -19 -34 -34 -42 -24 -13 -29 -13 -59 4 -18 11 -44 28 -58 38 -14 11 -69 50 -123 89 -97 69 -232 178 -359 292 -73 64 -84 93 -51 129 20 23 40 23 78 -1z m2892 -167 c31 -8 72 -17 92 -19 60 -8 222 -75 295 -123 104 -68 186 -153 186 -190 0 -33 -30 -62 -63 -62 -10 0 -37 21 -60 46 -95 104 -265 189 -450 225 -145 28 -339 38 -404 20 -71 -19 -103 -6 -103 42 0 41 22 63 76 76 54 14 361 3 431 -15z m-3193 -208 c55 -29 160 -84 231 -121 135 -70 254 -142 293 -178 29 -27 28 -61 -4 -86 -15 -12 -30 -21 -34 -21 -4 0 -34 18 -67 39 -78 50 -125 76 -313 174 -221 114 -269 144 -276 173 -7 27 27 74 54 74 8 0 60 -24 116 -54z m2028 -153 c14 -16 37 -68 111 -248 69 -168 127 -347 127 -395 0 -45 -3 -52 -26 -60 -45 -17 -73 -3 -84 44 -26 100 -118 349 -194 524 -20 46 -36 91 -36 100 0 45 72 69 102 35z m1418 -27 c318 -83 359 -108 463 -278 46 -76 51 -149 15 -201 -72 -106 -153 -159 -343 -223 l-140 -47 -155 6 c-189 8 -215 14 -356 82 -86 42 -121 64 -153 102 -77 87 -141 227 -141 308 0 35 31 75 59 75 10 0 26 10 37 21 23 26 202 144 259 171 60 29 320 20 455 -16z m2385 -131 c97 -18 152 -50 211 -123 84 -102 105 -183 64 -250 -29 -48 -139 -193 -167 -220 -45 -45 -150 -84 -272 -103 -172 -27 -204 -25 -344 22 -150 50 -219 90 -258 149 -70 105 -62 162 34 272 93 107 199 176 322 210 210 59 287 67 410 43z m-4418 -22 c55 -59 185 -268 259 -415 50 -99 52 -132 10 -148 -41 -15 -65 -1 -93 54 -47 92 -145 260 -197 335 -81 117 -86 125 -86 144 0 23 35 57 60 57 12 0 33 -12 47 -27z m-2262 -73 c185 -38 213 -45 234 -64 41 -37 14 -96 -44 -96 -18 0 -77 11 -133 25 -55 14 -118 28 -139 31 -76 11 -107 61 -66 106 20 23 26 22 148 -2z m1686 -13 c8 -7 35 -39 59 -72 24 -33 104 -121 179 -196 189 -190 226 -230 245 -267 23 -45 17 -83 -16 -102 -35 -19 -52 -9 -93 51 -16 24 -102 116 -190 204 -178 177 -275 295 -275 333 0 18 42 62 58 62 9 0 24 -6 33 -13z m-1117 -51 c46 -19 223 -194 232 -229 4 -20 -1 -45 -19 -85 -14 -31 -24 -58 -22 -61 3 -2 19 7 37 21 97 72 162 87 205 46 28 -27 29 -45 2 -120 -12 -32 -19 -61 -16 -64 3 -3 29 -1 57 5 125 27 258 6 361 -57 34 -20 72 -43 85 -50 38 -20 56 -55 45 -84 -12 -31 -23 -40 -102 -81 -70 -36 -191 -107 -314 -184 -44 -27 -120 -74 -168 -104 -48 -30 -118 -78 -155 -108 -37 -29 -88 -64 -113 -76 -25 -13 -60 -35 -76 -49 -52 -44 -180 -108 -209 -104 -15 2 -36 15 -48 31 -20 27 -21 41 -21 255 0 131 6 261 13 307 7 44 15 103 17 130 6 60 55 337 61 347 2 3 7 60 10 125 7 123 18 161 56 187 28 20 40 20 82 2z m4821 -202 c14 -9 25 -21 25 -27 0 -6 45 -88 100 -183 56 -94 103 -187 106 -206 7 -42 -20 -71 -62 -66 -24 3 -38 21 -111 148 -162 279 -175 318 -120 340 31 12 35 12 62 -6z m-225 -44 c10 -10 29 -38 41 -62 12 -24 54 -86 93 -138 90 -120 147 -207 171 -260 17 -38 18 -45 4 -69 -17 -29 -61 -40 -85 -20 -9 7 -26 33 -39 58 -13 25 -58 95 -101 154 -176 242 -213 319 -166 346 27 16 60 13 82 -9z m-5016 -66 c24 -23 20 -71 -6 -88 -29 -18 -32 -18 -280 -17 -194 1 -209 2 -228 21 -11 11 -20 29 -20 40 0 11 9 29 20 40 19 19 33 20 259 20 204 0 242 -2 255 -16z m4842 -132 c7 -4 69 -92 139 -197 70 -104 138 -201 151 -216 13 -14 24 -35 24 -46 0 -48 -62 -69 -107 -38 -37 26 -293 417 -293 447 0 45 50 74 86 50z m-1219 -52 c52 -57 120 -99 208 -129 33 -11 78 -27 100 -35 28 -11 80 -15 175 -16 128 0 138 1 195 28 33 16 66 36 74 45 16 20 64 22 79 5 10 -13 15 -40 13 -65 -2 -22 -55 -65 -121 -96 -57 -28 -79 -32 -189 -38 -130 -8 -197 -2 -271 26 -25 9 -71 25 -103 35 -178 57 -332 209 -277 275 26 31 68 18 117 -35z m2191 -101 c86 -86 151 -109 328 -116 117 -5 137 -4 200 17 38 12 83 33 101 46 39 29 67 30 93 4 28 -28 25 -45 -17 -91 -30 -31 -57 -46 -128 -70 -81 -28 -102 -31 -215 -31 -202 -1 -347 48 -438 146 -67 72 -74 116 -24 145 29 17 36 13 100 -50z m-3049 -25 c28 -20 78 -126 138 -294 59 -166 64 -182 57 -202 -6 -21 -51 -58 -71 -58 -27 0 -63 47 -63 83 0 40 -65 229 -115 336 -40 84 -43 103 -15 131 24 24 38 25 69 4z m-2782 -70 c39 -29 43 -64 12 -95 -16 -16 -27 -19 -47 -13 -15 5 -107 8 -205 9 -165 0 -180 1 -193 19 -29 40 -9 87 41 99 11 2 96 5 189 6 167 1 170 1 203 -25z m2361 -54 c178 -249 273 -407 280 -466 4 -37 1 -44 -22 -59 -40 -26 -66 -9 -104 66 -30 61 -125 209 -247 384 -60 86 -63 99 -39 133 12 17 24 22 47 20 26 -2 40 -16 85 -78z m807 57 c8 -13 19 -45 24 -73 6 -27 24 -107 41 -179 50 -206 44 -265 -26 -265 -40 0 -64 30 -62 75 1 17 -10 84 -25 150 -68 296 -64 270 -40 297 23 26 69 23 88 -5z m425 -41 c67 -61 193 -141 261 -165 56 -20 153 -19 248 3 194 43 215 43 232 -1 10 -28 -1 -57 -30 -72 -10 -6 -71 -22 -136 -36 -163 -35 -282 -35 -373 2 -157 62 -332 202 -332 266 0 21 35 57 56 57 9 0 42 -24 74 -54z m-2151 -83 c28 -24 40 -120 41 -317 0 -165 -7 -186 -61 -186 -42 0 -62 35 -54 96 4 27 -1 122 -9 212 -8 89 -12 170 -9 178 6 15 36 32 59 33 7 1 21 -7 33 -16z m4370 -28 c30 -20 88 -52 130 -72 l76 -37 165 -1 165 -1 14 -26 c22 -38 3 -74 -46 -88 -74 -21 -194 -24 -255 -6 -31 9 -65 16 -76 16 -53 0 -276 126 -288 162 -9 30 4 68 29 78 31 12 27 14 86 -25z m-4557 -82 c16 -14 18 -34 19 -152 0 -75 4 -163 8 -196 9 -68 1 -99 -29 -115 -26 -14 -66 8 -80 45 -5 13 -10 110 -11 216 -2 176 -1 193 16 206 25 18 55 16 77 -4z m818 -83 c5 0 23 -20 39 -44 17 -25 37 -50 43 -58 35 -37 136 -156 151 -178 29 -42 14 -83 -36 -95 -29 -8 -31 -6 -132 109 -78 89 -155 195 -155 213 0 22 49 66 66 59 9 -3 20 -6 24 -6z m-1046 -86 c33 -13 39 -48 44 -230 4 -175 3 -183 -17 -203 -24 -24 -49 -27 -75 -8 -15 11 -18 36 -23 182 -8 247 -9 236 12 251 21 15 35 17 59 8z"
       id="path79"
       style="fill:#fefefe;fill-opacity:0" />
    <path
       d="M5616 2525 c-57 -20 -87 -45 -121 -100 -52 -84 -46 -227 13 -296 36 -44 142 -90 218 -97 107 -8 166 27 212 125 22 48 27 71 27 138 -1 44 -4 92 -8 107 -11 40 -63 75 -158 104 -108 34 -136 37 -183 19z m133 -180 c47 -24 56 -97 17 -142 -19 -22 -32 -28 -66 -28 -54 0 -90 37 -90 94 0 75 69 113 139 76z"
       id="path80"
       style="fill:#fefefe;fill-opacity:0" />
    <path
       d="M7953 2357 c-57 -13 -103 -48 -129 -99 -26 -49 -22 -183 5 -237 31 -60 68 -76 176 -76 107 0 178 21 221 66 27 28 29 37 32 119 5 111 -14 161 -78 205 -35 24 -54 30 -109 32 -36 1 -89 -3 -118 -10z m141 -138 c35 -28 36 -92 1 -131 -53 -61 -155 -18 -155 64 0 78 90 117 154 67z"
       id="path81"
       style="fill:#fefefe;fill-opacity:0" />
    <path
       d="M8280 7934 c-41 -7 -95 -13 -120 -12 -93 2 -91 3 -76 -39 7 -21 30 -69 51 -107 21 -37 53 -107 71 -155 36 -97 29 -101 77 39 15 41 44 119 67 173 22 54 40 103 40 108 0 11 -15 10 -110 -7z"
       id="path82"
       style="fill:#fefefe;fill-opacity:0" />
    <path
       d="M7475 7900 c-33 -4 -92 -8 -132 -9 -39 -1 -74 -5 -77 -9 -2 -4 20 -53 49 -108 30 -54 80 -147 112 -207 l58 -107 11 52 c45 210 77 349 91 384 6 16 -11 16 -112 4z"
       id="path83"
       style="fill:#fefefe;fill-opacity:0" />
    <path
       d="M6423 7822 c-71 -2 -83 -5 -83 -20 0 -20 85 -231 99 -245 6 -6 17 15 29 59 36 127 51 199 44 204 -4 3 -44 4 -89 2z"
       id="path84"
       style="fill:#fefefe;fill-opacity:0" />
    <path
       d="M5595 7744 c-49 -8 -93 -18 -98 -23 -4 -4 19 -59 51 -122 32 -63 74 -151 93 -196 19 -46 37 -83 40 -83 5 0 22 96 35 205 3 28 12 73 19 100 7 28 15 69 18 93 l5 42 -36 -1 c-21 -1 -77 -8 -127 -15z"
       id="path85"
       style="fill:#fefefe;fill-opacity:0" />
    <path
       d="M4845 7524 c-106 -54 -105 -48 -26 -134 38 -41 72 -72 75 -69 3 3 10 37 15 75 5 38 13 90 17 117 4 26 3 47 -2 47 -5 0 -40 -16 -79 -36z"
       id="path86"
       style="fill:#fefefe;fill-opacity:0" />
    <path
       d="M7882 4438 c-17 -35 -42 -99 -56 -143 -15 -44 -31 -89 -35 -100 -8 -18 -73 -209 -88 -259 -5 -16 -3 -18 18 -12 13 4 49 11 79 17 121 22 249 53 348 85 10 3 10 8 -2 26 -7 13 -19 41 -26 63 -7 22 -43 99 -81 170 -95 182 -113 215 -121 215 -4 0 -20 -28 -36 -62z"
       id="path87"
       style="fill:#fefefe;fill-opacity:0" />
    <path
       d="M5197 4408 c-62 -83 -157 -229 -157 -240 0 -8 261 -145 293 -153 l25 -7 -28 119 c-15 65 -35 163 -45 218 -28 154 -23 151 -88 63z"
       id="path88"
       style="fill:#fefefe;fill-opacity:0" />
    <path
       d="M5754 4438 c-3 -13 -33 -81 -67 -153 -33 -71 -79 -176 -102 -232 l-43 -103 37 -10 c20 -5 61 -14 91 -20 30 -5 94 -16 142 -25 48 -8 98 -15 111 -15 l25 0 -15 53 c-8 28 -22 67 -30 86 -8 19 -27 85 -43 147 -36 144 -83 294 -92 294 -4 0 -10 -10 -14 -22z"
       id="path89"
       style="fill:#fefefe;fill-opacity:0" />
    <path
       d="M8425 4338 c-16 -62 -39 -139 -52 -172 -13 -32 -22 -60 -20 -62 3 -4 130 35 179 54 l27 11 -40 103 c-22 57 -42 120 -45 141 -4 20 -9 37 -13 37 -4 0 -20 -51 -36 -112z"
       id="path90"
       style="fill:#fefefe;fill-opacity:0" />
    <path
       d="M7086 4349 c-3 -8 -23 -79 -46 -159 -23 -80 -57 -188 -76 -240 -19 -52 -34 -98 -34 -102 0 -12 154 -10 272 3 57 6 104 12 106 13 1 2 -13 34 -32 72 -18 38 -46 105 -61 149 -33 97 -100 254 -114 268 -7 7 -12 6 -15 -4z"
       id="path91"
       style="fill:#fefefe;fill-opacity:0" />
    <path
       d="M6336 4212 c-32 -64 -75 -142 -96 -172 -56 -85 -111 -186 -103 -193 9 -9 433 -9 433 0 0 11 -51 174 -71 228 -10 28 -26 75 -35 105 -20 67 -54 150 -63 150 -3 0 -33 -53 -65 -118z"
       id="path92"
       style="fill:#fefefe;fill-opacity:0" />
  </g>
</svg>
