<svg width="24" height="26" viewBox="0 0 24 26" fill="none" xmlns="http://www.w3.org/2000/svg">
<path d="M8.70796 25.2743C10.0531 25.2743 10.7257 24.4956 10.7257 22.9381C10.7257 19.9646 10.1947 16.6726 9.13274 13.062C8.0708 9.38053 6.76106 6.30088 5.20354 3.82301C3.71681 1.27434 2.30088 0 0.955749 0C0.318583 0.212391 0 0.884957 0 2.0177C0 3.43363 0.38938 5.9469 1.16814 9.55752C1.9469 13.1681 2.97345 16.6018 4.24779 19.8584C5.73451 23.469 7.22124 25.2743 8.70796 25.2743ZM22.9381 25.8053C23.646 25.8053 24 25.0266 24 23.469C24 20.6372 23.3982 17.3097 22.1947 13.4867C20.9204 9.66372 19.469 6.47788 17.8407 3.9292C16.2124 1.38053 14.9381 0.106193 14.0177 0.106193C13.3097 0.106193 12.9558 0.814157 12.9558 2.23009C12.9558 3.71681 13.2035 5.73451 13.6991 8.28319C14.1239 10.8319 14.7257 13.3805 15.5044 15.9292C16.4248 18.8319 17.5575 21.2035 18.9027 23.0443C20.177 24.885 21.5221 25.8053 22.9381 25.8053Z" fill="#070707"/>
</svg>
