<svg width="24" height="26" viewBox="0 0 24 26" fill="none" xmlns="http://www.w3.org/2000/svg">
<path d="M15.292 25.2743C13.9469 25.2743 13.2743 24.4956 13.2743 22.9381C13.2743 19.9646 13.8053 16.6726 14.8673 13.062C15.9292 9.38053 17.2389 6.30088 18.7965 3.82301C20.2832 1.27434 21.6991 0 23.0443 0C23.6814 0.212391 24 0.884957 24 2.0177C24 3.43363 23.6106 5.9469 22.8319 9.55752C22.0531 13.1681 21.0265 16.6018 19.7522 19.8584C18.2655 23.469 16.7788 25.2743 15.292 25.2743ZM1.06195 25.8053C0.353982 25.8053 0 25.0266 0 23.469C0 20.6372 0.60177 17.3097 1.80531 13.4867C3.07965 9.66372 4.53097 6.47788 6.15929 3.9292C7.78761 1.38053 9.06195 0.106193 9.9823 0.106193C10.6903 0.106193 11.0442 0.814157 11.0442 2.23009C11.0442 3.71681 10.7965 5.73451 10.3009 8.28319C9.87611 10.8319 9.27434 13.3805 8.49557 15.9292C7.57522 18.8319 6.44248 21.2035 5.09734 23.0443C3.82301 24.885 2.47788 25.8053 1.06195 25.8053Z" fill="#070707"/>
</svg>
